<?xml version="1.0" encoding="UTF-8" standalone="no"?>
<svg
   xmlns:dc="http://purl.org/dc/elements/1.1/"
   xmlns:cc="http://creativecommons.org/ns#"
   xmlns:rdf="http://www.w3.org/1999/02/22-rdf-syntax-ns#"
   xmlns:svg="http://www.w3.org/2000/svg"
   xmlns="http://www.w3.org/2000/svg"
   xmlns:sodipodi="http://sodipodi.sourceforge.net/DTD/sodipodi-0.dtd"
   xmlns:inkscape="http://www.inkscape.org/namespaces/inkscape"
   sodipodi:docname="g04.svg"
   inkscape:version="1.0.1 (c497b03c, 2020-09-10)"
   width="640"
   height="640"
   viewBox="0 0 640 640"
   version="1.1"
   id="svg1145">
  <defs
     id="defs1139" />
  <sodipodi:namedview
     id="base"
     pagecolor="#ffffff"
     bordercolor="#666666"
     borderopacity="1.0"
     inkscape:pageopacity="0.0"
     inkscape:pageshadow="2"
     inkscape:zoom="1.5485374"
     inkscape:cx="356.63637"
     inkscape:cy="273.63565"
     inkscape:document-units="px"
     inkscape:current-layer="layer1"
     inkscape:document-rotation="0"
     showgrid="false"
     inkscape:window-width="1934"
     inkscape:window-height="1163"
     inkscape:window-x="50"
     inkscape:window-y="25"
     inkscape:window-maximized="0"
     units="px"
     objecttolerance="10"
     inkscape:snap-to-guides="false"
     inkscape:snap-grids="true"
     gridtolerance="10"
     inkscape:showpageshadow="false">
    <inkscape:grid
       type="xygrid"
       id="grid1726"
       dotted="false"
       empspacing="1"
       originx="0"
       originy="0" />
  </sodipodi:namedview>
  <metadata
     id="metadata1142">
    <rdf:RDF>
      <cc:Work
         rdf:about="">
        <dc:format>image/svg+xml</dc:format>
        <dc:type
           rdf:resource="http://purl.org/dc/dcmitype/StillImage" />
        <dc:title></dc:title>
      </cc:Work>
    </rdf:RDF>
  </metadata>
  <g
     inkscape:label="Layer 1"
     inkscape:groupmode="layer"
     id="layer1">
    <rect
       y="-86.264732"
       x="962.61102"
       height="103.51768"
       width="136.45511"
       id="rect1046"
       style="fill:#98a7e4;fill-opacity:1;stroke:none;stroke-width:1;stroke-linecap:round;stroke-linejoin:round;stroke-miterlimit:4;stroke-dasharray:none;paint-order:stroke fill markers" />
    <rect
       y="45.485039"
       x="962.61102"
       height="98.812325"
       width="141.16046"
       id="rect1048"
       style="fill:#afe498;fill-opacity:1;stroke:none;stroke-width:1;stroke-linecap:round;stroke-linejoin:round;stroke-miterlimit:4;stroke-dasharray:none;paint-order:stroke fill markers" />
    <rect
       y="185.07706"
       x="975.15863"
       height="97.243874"
       width="130.18132"
       id="rect1050"
       style="fill:#f0857a;fill-opacity:1;stroke:none;stroke-width:1;stroke-linecap:round;stroke-linejoin:round;stroke-miterlimit:4;stroke-dasharray:none;paint-order:stroke fill markers" />
    <rect
       y="313.68991"
       x="973.59021"
       height="95.675423"
       width="136.45511"
       id="rect1052"
       style="fill:#e498e0;fill-opacity:1;stroke:none;stroke-width:1;stroke-linecap:round;stroke-linejoin:round;stroke-miterlimit:4;stroke-dasharray:none;paint-order:stroke fill markers" />
    <path
       d="m 87,229 c -29,-6 -58,-9 -87,-9 0,140 0,280 0,420 140,0 280,0 420,0 0,-29 -3,-58 -9,-87 C 335,583 244,573 178,525 110,479 69,399 70,317 c 0,-30 6,-60 17,-88 z"
       style="fill:#98a7e4;fill-opacity:1;stroke:none;stroke-width:0.101;stroke-linecap:round;stroke-linejoin:round;stroke-miterlimit:4;stroke-dasharray:none;paint-order:stroke fill markers"
       id="rect1143" />
    <path
       d="M 87 229 C 58 302 66 387 108 453 C 149 519 223 564 300 569 C 338 572 376 567 411 553 C 388 443 318 343 222 284 C 181 258 135 239 87 229 Z"
       style="fill:#f0857a;fill-opacity:1;stroke:none;stroke-width:0.101;stroke-linecap:round;stroke-linejoin:round;stroke-miterlimit:4;stroke-dasharray:none;paint-order:stroke fill markers"
       id="path1206" />
    <path
       d="M 503 149 C 450 198 422 271 427 342 C 431 399 457 455 498 495 C 552 441 579 362 568 286 C 561 235 538 187 503 149 Z"
       style="fill:#f0857a;fill-opacity:1;stroke:none;stroke-width:0.101;stroke-linecap:round;stroke-linejoin:round;stroke-miterlimit:4;stroke-dasharray:none;paint-order:stroke fill markers"
       id="path1185" />
    <path
       d="M 360 73 C 360 190 360 307 360 424 C 384 464 401 507 411 553 C 443 540 475 520 498 495 C 443 442 417 362 430 287 C 438 235 464 185 503 149 C 465 109 414 82 360 73 Z"
       style="fill:#afe498;fill-opacity:1;stroke:none;stroke-width:0.101;stroke-linecap:round;stroke-linejoin:round;stroke-miterlimit:4;stroke-dasharray:none;paint-order:stroke fill markers"
       id="path1256" />
    <path
       d="M 531 454 C 503 498 456 535 411 553 C 417 582 420 611 420 640 L 640 640 L 640 518 C 638 517 564 474 531 454 Z"
       style="fill:#e498e0;fill-opacity:1;stroke:none;stroke-width:0.101;stroke-linecap:round;stroke-linejoin:round;stroke-miterlimit:4;stroke-dasharray:none;paint-order:stroke fill markers"
       id="path1224"
       sodipodi:nodetypes="cccccc" />
    <path
       d="M 640,136 V 0 H 360 v 73 c 74,11 140,58 177,123 32,-19 103,-60 103,-60 z"
       style="fill:#e498e0;fill-opacity:1;stroke:none;stroke-width:0.101;stroke-linecap:round;stroke-linejoin:round;stroke-miterlimit:4;stroke-dasharray:none;paint-order:stroke fill markers"
       id="path1244"
       sodipodi:nodetypes="cccccc" />
    <path
       d="m 640,136 c 0,0 -71,41 -103,60 5,8 9,17 13,26 32,75 25,164 -19,232 33,20 67,40 102,60 2,2 5,3 7,4 0,-127.33333 0,-254.66667 0,-382 z"
       style="fill:#98a7e4;fill-opacity:1;stroke:none;stroke-width:0.101;stroke-linecap:round;stroke-linejoin:round;stroke-miterlimit:4;stroke-dasharray:none;paint-order:stroke fill markers"
       id="path1242"
       sodipodi:nodetypes="ccccccc" />
    <path
       sodipodi:nodetypes="ccccc"
       d="m 360,73 c -76,-12 -156,12 -212,65 -26,26 -48,57 -61,91 118.93236,26.10386 216.75126,100.50492 273,195 0,-117 0,-234 0,-351 z"
       style="fill:#98a7e4;fill-opacity:1;stroke:none;stroke-width:0.101;stroke-linecap:round;stroke-linejoin:round;stroke-miterlimit:4;stroke-dasharray:none;paint-order:stroke fill markers"
       id="path1194" />
    <path
       d="M 0 0 C 0 73 0 147 0 220 C 29 220 59 223 87 229 C 114 159 175 102 247 81 C 284 70 322 67 360 73 C 360 49 360 24 360 0 C 240 0 120 0 0 0 Z"
       style="fill:#afe498;fill-opacity:1;stroke:none;stroke-width:0.101;stroke-linecap:round;stroke-linejoin:round;stroke-miterlimit:4;stroke-dasharray:none;paint-order:stroke fill markers"
       id="path1215" />
  </g>
</svg>
