<?xml version="1.0" encoding="UTF-8" standalone="no"?>
<svg
   xmlns:dc="http://purl.org/dc/elements/1.1/"
   xmlns:cc="http://creativecommons.org/ns#"
   xmlns:rdf="http://www.w3.org/1999/02/22-rdf-syntax-ns#"
   xmlns:svg="http://www.w3.org/2000/svg"
   xmlns="http://www.w3.org/2000/svg"
   xmlns:sodipodi="http://sodipodi.sourceforge.net/DTD/sodipodi-0.dtd"
   xmlns:inkscape="http://www.inkscape.org/namespaces/inkscape"
   id="svg1145"
   version="1.1"
   viewBox="0 0 640 640"
   height="640"
   width="640"
   inkscape:version="1.0.1 (c497b03c, 2020-09-10)"
   sodipodi:docname="g05.svg">
  <defs
     id="defs1139" />
  <sodipodi:namedview
     inkscape:showpageshadow="false"
     inkscape:pagecheckerboard="true"
     showguides="false"
     id="base"
     pagecolor="#ffffff"
     bordercolor="#666666"
     borderopacity="1.0"
     inkscape:pageopacity="0.82745098"
     inkscape:pageshadow="2"
     inkscape:zoom="1.5683296"
     inkscape:cx="347.34583"
     inkscape:cy="329.84636"
     inkscape:document-units="px"
     inkscape:current-layer="layer1"
     inkscape:document-rotation="0"
     showgrid="false"
     inkscape:window-width="2503"
     inkscape:window-height="1387"
     inkscape:window-x="57"
     inkscape:window-y="25"
     inkscape:window-maximized="1"
     units="px"
     objecttolerance="10"
     inkscape:snap-to-guides="false"
     inkscape:snap-grids="true"
     gridtolerance="10">
    <inkscape:grid
       type="xygrid"
       id="grid1726"
       dotted="false"
       empspacing="1"
       originx="0"
       originy="0" />
  </sodipodi:namedview>
  <metadata
     id="metadata1142">
    <rdf:RDF>
      <cc:Work
         rdf:about="">
        <dc:format>image/svg+xml</dc:format>
        <dc:type
           rdf:resource="http://purl.org/dc/dcmitype/StillImage" />
        <dc:title></dc:title>
      </cc:Work>
    </rdf:RDF>
  </metadata>
  <g
     inkscape:label="Layer 1"
     inkscape:groupmode="layer"
     id="layer1">
    <rect
       style="fill:#98a7e4;fill-opacity:1;stroke:none;stroke-width:0.841391;stroke-linecap:round;stroke-linejoin:round;stroke-miterlimit:4;stroke-dasharray:none;paint-order:stroke fill markers"
       id="rect1046"
       width="100"
       height="100"
       x="800"
       y="-8.7890623e-07" />
    <rect
       style="fill:#afe498;fill-opacity:1;stroke:none;stroke-width:0.846716;stroke-linecap:round;stroke-linejoin:round;stroke-miterlimit:4;stroke-dasharray:none;paint-order:stroke fill markers"
       id="rect1048"
       width="100"
       height="100"
       x="800"
       y="131.74977" />
    <rect
       style="fill:#f0857a;fill-opacity:1;stroke:none;stroke-width:0.888781;stroke-linecap:round;stroke-linejoin:round;stroke-miterlimit:4;stroke-dasharray:none;paint-order:stroke fill markers"
       id="rect1050"
       width="100"
       height="100"
       x="800"
       y="271.3418" />
    <rect
       style="fill:#e498e0;fill-opacity:1;stroke:none;stroke-width:0.875195;stroke-linecap:round;stroke-linejoin:round;stroke-miterlimit:4;stroke-dasharray:none;paint-order:stroke fill markers"
       id="rect1052"
       width="100"
       height="100"
       x="800"
       y="399.95465" />
    <path
       d="M 148 372 C 101 390 50 400 0 400 L 0 640 L 400 640 C 400 590 391 539 371 492 C 311 511 243 495 198 452 C 174 430 157 402 148 372 Z"
       style="fill:#98a7e4;fill-opacity:1;stroke:none;stroke-width:0.112065;stroke-linecap:round;stroke-linejoin:round;stroke-miterlimit:4;stroke-dasharray:none;paint-order:stroke fill markers"
       id="rect2165"
       sodipodi:nodetypes="ccccccc" />
    <path
       d="M 148 372 C 165 432 216 480 276 495 C 308 502 340 502 371 492 C 342 419 299 364 240 320 C 212 341 180 359 148 372 Z"
       style="fill:#e498e0;fill-opacity:1;stroke:none;stroke-width:0.112065;stroke-linecap:round;stroke-linejoin:round;stroke-miterlimit:4;stroke-dasharray:none;paint-order:stroke fill markers"
       id="path2373"
       sodipodi:nodetypes="ccccc" />
    <path
       d="M 0 400 C 86 400 171 372 240 320 C 171 269 86 240 0 240 C 0 293 0 347 0 400 Z"
       style="fill:#f0857a;fill-opacity:1;stroke:none;stroke-width:0.112065;stroke-linecap:round;stroke-linejoin:round;stroke-miterlimit:4;stroke-dasharray:none;paint-order:stroke fill markers"
       id="path2231" />
    <path
       d="M 359 465 C 386 519 400 579 400 640 C 480 640 560 640 640 640 C 640 560 640 480 640 400 C 579 400 519 386 465 359 C 451 410 410 451 359 465 Z"
       style="fill:#afe498;fill-opacity:1;stroke:none;stroke-width:0.112065;stroke-linecap:round;stroke-linejoin:round;stroke-miterlimit:4;stroke-dasharray:none;paint-order:stroke fill markers"
       id="path2212" />
    <path
       d="M 359 465 C 410 451 452 410 465 359 C 442 348 420 335 400 320 C 370 343 343 370 320 400 C 335 420 348 442 359 465 Z"
       style="fill:#98a7e4;fill-opacity:1;stroke:none;stroke-width:0.112065;stroke-linecap:round;stroke-linejoin:round;stroke-miterlimit:4;stroke-dasharray:none;paint-order:stroke fill markers"
       id="path2406" />
    <path
       d="M 320 240 C 297 270 270 297 240 320 C 270 342 297 370 320 400 C 343 370 370 343 400 320 C 370 297 343 270 320 240 Z"
       style="fill:#f0857a;fill-opacity:1;stroke:none;stroke-width:0.112065;stroke-linecap:round;stroke-linejoin:round;stroke-miterlimit:4;stroke-dasharray:none;paint-order:stroke fill markers"
       id="path2318" />
    <path
       sodipodi:nodetypes="ccccc"
       d="m 640,240 c -86,0 -166,25 -240,80 66,50 149,79 232,80 2.66667,0 5.33333,0 8,0 0,-53.33333 0,-106.66667 0,-160 z"
       style="fill:#f0857a;fill-opacity:1;stroke:none;stroke-width:0.112065;stroke-linecap:round;stroke-linejoin:round;stroke-miterlimit:4;stroke-dasharray:none;paint-order:stroke fill markers"
       id="path2258" />
    <path
       d="M 492 268 C 475 208 424 160 364 145 C 332 138 299 138 268 148 C 295 216 341 276 400 320 C 428 299 460 281 492 268 Z"
       style="fill:#e498e0;fill-opacity:1;stroke:none;stroke-width:0.112065;stroke-linecap:round;stroke-linejoin:round;stroke-miterlimit:4;stroke-dasharray:none;paint-order:stroke fill markers"
       id="path2330" />
    <path
       d="M 240 0 C 240 50 250 101 268 148 C 328 129 397 145 442 188 C 466 209 483 238 492 268 C 539 250 590 240 640 240 C 640 160 640 80 640 0 C 507 0 373 0 240 0 Z"
       style="fill:#98a7e4;fill-opacity:1;stroke:none;stroke-width:0.112065;stroke-linecap:round;stroke-linejoin:round;stroke-miterlimit:4;stroke-dasharray:none;paint-order:stroke fill markers"
       id="path2361" />
    <path
       sodipodi:nodetypes="ccccc"
       d="M 250 90 C 170 113 104 200 90 250 C 139 260 198 289 240 320 C 270 298 297 270 320 240 C 287 196 263 144 250 90 Z"
       style="fill:#afe498;fill-opacity:1;stroke:none;stroke-width:0.112065;stroke-linecap:round;stroke-linejoin:round;stroke-miterlimit:4;stroke-dasharray:none;paint-order:stroke fill markers"
       id="path2243" />
    <path
       sodipodi:nodetypes="cccccc"
       d="m 0,0 c 0,80 0,160 0,240 30,0 67,5 90,10 C 110,189 172,116 250,90 250,90 240,25 240,0 160,0 80,0 0,0 Z"
       style="fill:#e498e0;fill-opacity:1;stroke:none;stroke-width:0.112065;stroke-linecap:round;stroke-linejoin:round;stroke-miterlimit:4;stroke-dasharray:none;paint-order:stroke fill markers"
       id="path2394" />
  </g>
</svg>
