<?xml version="1.0" encoding="UTF-8" standalone="no"?>
<svg
   xmlns:dc="http://purl.org/dc/elements/1.1/"
   xmlns:cc="http://creativecommons.org/ns#"
   xmlns:rdf="http://www.w3.org/1999/02/22-rdf-syntax-ns#"
   xmlns:svg="http://www.w3.org/2000/svg"
   xmlns="http://www.w3.org/2000/svg"
   xmlns:sodipodi="http://sodipodi.sourceforge.net/DTD/sodipodi-0.dtd"
   xmlns:inkscape="http://www.inkscape.org/namespaces/inkscape"
   id="svg1145"
   version="1.1"
   viewBox="0 0 640 640"
   height="640"
   width="640"
   inkscape:version="1.0.1 (c497b03c, 2020-09-10)"
   sodipodi:docname="g07.svg">
  <defs
     id="defs1139">
    <inkscape:path-effect
       effect="mirror_symmetry"
       start_point="0,0"
       end_point="640,640"
       center_point="399.8278,541.44737"
       id="path-effect1249"
       is_visible="true"
       lpeversion="1"
       mode="free"
       discard_orig_path="false"
       fuse_paths="false"
       oposite_fuse="false"
       split_items="true" />
    <pattern
       id="Voronoi7543"
       width="640.0"
       height="640.0"
       patternUnits="userSpaceOnUse">
      <path
         d="M 289.285,75.731 351.668,0.000 M 158.410,0.000 289.285,75.731 M 448.763,106.417 461.355,0.000 M 268.522,141.069 289.285,75.731 M 96.722,0.000 197.582,139.018 M 197.582,139.018 268.522,141.069 M 268.522,141.069 288.060,158.823 M 288.060,158.823 363.327,169.488 M 363.327,169.488 448.763,106.417 M 277.409,210.882 288.060,158.823 M 448.763,106.417 520.218,215.554 M 520.218,215.554 564.207,208.875 M 516.384,224.150 520.218,215.554 M 277.409,210.882 322.392,293.341 M 322.392,293.341 377.861,290.165 M 363.327,169.488 377.861,290.165 M 377.861,290.165 386.867,296.375 M 72.943,265.207 92.949,0.000 M 386.867,296.375 415.007,301.274 M 415.007,301.274 516.384,224.150 M 72.943,265.207 127.843,281.028 M 127.843,281.028 197.582,139.018 M 415.007,301.274 457.701,369.098 M 227.198,342.715 322.392,293.341 M 127.843,281.028 159.892,315.092 M 159.892,315.092 277.409,210.882 M 159.892,315.092 165.922,325.397 M 165.922,325.397 227.198,342.715 M 457.701,369.098 487.888,388.497 M 145.452,383.242 165.922,325.397 M 487.888,388.497 567.683,383.206 M 516.384,224.150 567.683,383.206 M 451.654,485.983 487.888,388.497 M 227.198,342.715 313.631,453.147 M 309.983,456.459 313.631,453.147 M 313.631,453.147 327.567,453.742 M 327.567,453.742 386.867,296.375 M 327.567,453.742 340.286,459.616 M 340.286,459.616 457.701,369.098 M 340.286,459.616 354.618,472.717 M 354.618,472.717 451.654,485.983 M 145.452,383.242 194.921,508.556 M 194.921,508.556 309.983,456.459 M 188.325,522.719 194.921,508.556 M 451.654,485.983 483.645,525.355 M 188.325,522.719 239.030,565.289 M 18.655,491.325 145.452,383.242 M 239.030,565.289 281.845,570.791 M 281.845,570.791 309.983,456.459 M 152.215,547.987 188.325,522.719 M 483.645,525.355 640.000,464.893 M 567.683,383.206 640.000,416.244 M 18.655,491.325 117.783,564.311 M 117.783,564.311 152.215,547.987 M 152.215,547.987 227.782,624.673 M 227.782,624.673 239.030,565.289 M 564.207,208.875 640.000,308.490 M 281.845,570.791 336.781,640.000 M 354.618,472.717 378.637,640.000 M 463.571,640.000 483.645,525.355 M 0.000,267.546 72.943,265.207 M 0.000,490.011 18.655,491.325 M 227.782,624.673 230.529,640.000 M 114.952,640.000 117.783,564.311 M 564.207,208.875 640.000,162.730 "
         style="stroke:#000000;stroke-width:1.0"
         id="path3069" />
    </pattern>
    <pattern
       id="Voronoi8497"
       width="640.0"
       height="640.000004"
       patternUnits="userSpaceOnUse"
       patternTransform="translate(1064.24, 15.786)">
      <path
         d="M 87.727,203.351 246.804,160.371 M 246.804,160.371 288.042,114.874 M 55.755,229.920 87.727,203.351 M 498.879,220.064 507.035,222.521 M 288.042,114.874 419.825,231.671 M 419.825,231.671 498.879,220.064 M 185.816,356.177 246.804,160.371 M 390.164,359.697 419.825,231.671 M 185.816,356.177 384.839,363.228 M 384.839,363.228 390.164,359.697 M 55.755,229.920 146.480,390.833 M 146.480,390.833 185.816,356.177 M 390.164,359.697 498.189,450.268 M 507.035,222.521 640.000,294.451 M 498.189,450.268 507.083,451.874 M 507.083,451.874 640.000,381.435 M 507.083,451.874 543.754,554.837 M 304.048,527.503 384.839,363.228 M 113.135,466.644 146.480,390.833 M 113.135,466.644 197.663,519.785 M 197.663,519.785 304.048,527.503 M 304.048,527.503 369.952,587.365 M 369.952,587.365 498.189,450.268 M 369.952,587.365 391.412,640.000 M 507.567,640.000 543.754,554.837 M 543.754,554.837 640.000,548.379 M 273.741,0.000 288.042,114.874 M 47.104,0.000 87.727,203.351 M 0.000,225.760 55.755,229.920 M 0.000,503.924 113.135,466.644 M 197.663,519.785 204.595,640.000 M 507.035,222.521 640.000,97.075 M 498.879,220.064 551.268,0.000 "
         style="stroke:#000000;stroke-width:1.0"
         id="path5404" />
    </pattern>
    <pattern
       id="Voronoi77"
       width="640.0"
       height="640.0"
       patternUnits="userSpaceOnUse">
      <path
         d="M 321.254,21.524 451.180,169.017 M 306.352,268.534 448.469,189.914 M 448.469,189.914 451.180,169.017 M 165.901,191.334 321.254,21.524 M 165.901,191.334 306.352,268.534 M 151.976,199.222 165.901,191.334 M 306.352,268.534 351.330,392.051 M 448.469,189.914 471.207,363.493 M 351.330,392.051 467.251,374.724 M 467.251,374.724 471.207,363.493 M 151.976,199.222 184.227,411.723 M 142.947,434.670 184.227,411.723 M 184.227,411.723 265.323,442.872 M 265.323,442.872 351.330,392.051 M 467.251,374.724 514.387,457.691 M 471.207,363.493 640.000,287.930 M 451.180,169.017 640.000,129.832 M 265.323,442.872 314.268,640.000 M 367.139,640.000 514.387,457.691 M 0.000,171.214 151.976,199.222 M 0.000,407.122 142.947,434.670 M 0.000,250.740 0.000,250.740 M 64.699,640.000 142.947,434.670 M 514.387,457.691 640.000,522.725 M 321.254,21.524 321.891,0.000 "
         style="stroke:#000000;stroke-width:1.0"
         id="path6010" />
    </pattern>
  </defs>
  <sodipodi:namedview
     inkscape:showpageshadow="false"
     inkscape:pagecheckerboard="true"
     showguides="false"
     id="base"
     pagecolor="#ffffff"
     bordercolor="#666666"
     borderopacity="1.0"
     inkscape:pageopacity="0.82745098"
     inkscape:pageshadow="2"
     inkscape:zoom="0.76016646"
     inkscape:cx="658.2465"
     inkscape:cy="346.08115"
     inkscape:document-units="px"
     inkscape:current-layer="layer1"
     inkscape:document-rotation="0"
     showgrid="false"
     inkscape:window-width="2507"
     inkscape:window-height="1387"
     inkscape:window-x="43"
     inkscape:window-y="25"
     inkscape:window-maximized="0"
     units="px"
     objecttolerance="10"
     inkscape:snap-to-guides="false"
     inkscape:snap-grids="true"
     gridtolerance="10">
    <inkscape:grid
       type="xygrid"
       id="grid1726"
       dotted="false"
       empspacing="1"
       originx="0"
       originy="0" />
  </sodipodi:namedview>
  <metadata
     id="metadata1142">
    <rdf:RDF>
      <cc:Work
         rdf:about="">
        <dc:format>image/svg+xml</dc:format>
        <dc:type
           rdf:resource="http://purl.org/dc/dcmitype/StillImage" />
        <dc:title></dc:title>
      </cc:Work>
    </rdf:RDF>
  </metadata>
  <g
     inkscape:label="Layer 1"
     inkscape:groupmode="layer"
     id="layer1">
    <path
       d="M 306 269 L 351 392 L 467 375 L 471 363 L 448 190 L 306 269 Z"
       style="opacity:0.7;fill:#e498e0;fill-opacity:0.7019608;stroke:none;stroke-width:0;stroke-linecap:round;stroke-linejoin:round;stroke-miterlimit:4;stroke-dasharray:none;stroke-opacity:0.701961;paint-order:stroke fill markers"
       id="rect6037" />
    <path
       d="M 152 199 L 184 412 L 265 443 L 351 392 L 306 269 L 166 191 L 152 199 Z"
       style="opacity:0.7;fill:#ef847b;fill-opacity:0.7019608;stroke:none;stroke-width:0;stroke-linecap:round;stroke-linejoin:round;stroke-miterlimit:4;stroke-dasharray:none;stroke-opacity:0.701961;paint-order:stroke fill markers"
       id="path6074" />
    <path
       d="M 0 407 L 143 435 L 184 412 L 152 199 L 0 171 L 0 407 Z"
       style="opacity:0.7;fill:#afe498;fill-opacity:0.7019608;stroke:none;stroke-width:0;stroke-linecap:round;stroke-linejoin:round;stroke-miterlimit:4;stroke-dasharray:none;stroke-opacity:0.701961;paint-order:stroke fill markers"
       id="path6072" />
    <path
       d="M 65 640 L 143 435 L 0 407 L 0 640 L 65 640 Z"
       style="opacity:0.7;fill:#ef847b;fill-opacity:0.701961;stroke:none;stroke-width:0;stroke-linecap:round;stroke-linejoin:round;stroke-miterlimit:4;stroke-dasharray:none;stroke-opacity:0.701961;paint-order:stroke fill markers"
       id="path6070" />
    <path
       d="M 314 640 L 265 443 L 184 412 L 143 435 L 65 640 L 314 640 Z"
       style="opacity:0.7;fill:#e498e0;fill-opacity:0.7019608;stroke:none;stroke-width:0;stroke-linecap:round;stroke-linejoin:round;stroke-miterlimit:4;stroke-dasharray:none;stroke-opacity:0.701961;paint-order:stroke fill markers"
       id="path6068" />
    <path
       d="M 367 640 L 514 458 L 467 375 L 351 392 L 265 443 L 314 640 L 367 640 Z"
       style="opacity:0.7;fill:#98a7e4;fill-opacity:0.7019608;stroke:none;stroke-width:0;stroke-linecap:round;stroke-linejoin:round;stroke-miterlimit:4;stroke-dasharray:none;stroke-opacity:0.701961;paint-order:stroke fill markers"
       id="path6066" />
    <path
       d="M 640 523 L 514 458 L 367 640 L 640 640 L 640 523 Z"
       style="opacity:0.7;fill:#ef847b;fill-opacity:0.701961;stroke:none;stroke-width:0;stroke-linecap:round;stroke-linejoin:round;stroke-miterlimit:4;stroke-dasharray:none;stroke-opacity:0.701961;paint-order:stroke fill markers"
       id="path6064" />
    <path
       d="M 640 288 L 471 363 L 467 375 L 514 458 L 640 523 L 640 288 Z"
       style="opacity:0.7;fill:#afe498;fill-opacity:0.7019608;stroke:none;stroke-width:0;stroke-linecap:round;stroke-linejoin:round;stroke-miterlimit:4;stroke-dasharray:none;stroke-opacity:0.701961;paint-order:stroke fill markers"
       id="path6062" />
    <path
       d="M 451 169 L 448 190 L 471 363 L 640 288 L 640 130 L 451 169 Z"
       style="opacity:0.7;fill:#98a7e4;fill-opacity:0.7019608;stroke:none;stroke-width:0;stroke-linecap:round;stroke-linejoin:round;stroke-miterlimit:4;stroke-dasharray:none;stroke-opacity:0.701961;paint-order:stroke fill markers"
       id="path6060" />
    <path
       d="M 321 22 L 166 191 L 306 269 L 448 190 L 451 169 L 321 22 Z"
       style="opacity:0.7;fill:#afe498;fill-opacity:0.7019608;stroke:none;stroke-width:0;stroke-linecap:round;stroke-linejoin:round;stroke-miterlimit:4;stroke-dasharray:none;stroke-opacity:0.701961;paint-order:stroke fill markers"
       id="path6058" />
    <path
       d="M 323 0 L 0 0 L 0 171 L 152 199 L 166 191 L 321 22 L 323 0 Z"
       style="opacity:0.7;fill:#98a7e4;fill-opacity:0.7019608;stroke:none;stroke-width:0;stroke-linecap:round;stroke-linejoin:round;stroke-miterlimit:4;stroke-dasharray:none;stroke-opacity:0.701961;paint-order:stroke fill markers"
       id="path6056" />
    <path
       d="m 323,0 c -0.66667,7.3333333 -1.33333,14.666667 -2,22 43.33333,49 86.66667,98 130,147 63,-13 126,-26 189,-39 0,-43.333333 0,-86.666667 0,-130 C 534.33333,0 428.66667,0 323,0 Z"
       style="opacity:0.7;fill:#ef847b;fill-opacity:0.701961;stroke:none;stroke-width:0;stroke-linecap:round;stroke-linejoin:round;stroke-miterlimit:4;stroke-dasharray:none;stroke-opacity:0.701961;paint-order:stroke fill markers"
       id="path6054"
       sodipodi:nodetypes="cccccc" />
    <rect
       style="fill:#98a7e4;fill-opacity:1;stroke:none;stroke-width:0.841391;stroke-linecap:round;stroke-linejoin:round;stroke-miterlimit:4;stroke-dasharray:none;paint-order:stroke fill markers;opacity:0.7"
       id="rect1046"
       width="100"
       height="100"
       x="800"
       y="-8.7890623e-07" />
    <rect
       style="fill:#afe498;fill-opacity:1;stroke:none;stroke-width:0.846716;stroke-linecap:round;stroke-linejoin:round;stroke-miterlimit:4;stroke-dasharray:none;paint-order:stroke fill markers;opacity:0.7"
       id="rect1048"
       width="100"
       height="100"
       x="800"
       y="131.74977" />
    <rect
       style="fill:#f0857a;fill-opacity:1;stroke:none;stroke-width:0.888781;stroke-linecap:round;stroke-linejoin:round;stroke-miterlimit:4;stroke-dasharray:none;paint-order:stroke fill markers;opacity:0.7"
       id="rect1050"
       width="100"
       height="100"
       x="800"
       y="271.3418" />
    <rect
       style="fill:#e498e0;fill-opacity:1;stroke:none;stroke-width:0.875195;stroke-linecap:round;stroke-linejoin:round;stroke-miterlimit:4;stroke-dasharray:none;paint-order:stroke fill markers;opacity:0.7"
       id="rect1052"
       width="100"
       height="100"
       x="800"
       y="399.95465" />
    <ellipse
       cy="-365.13449"
       cx="362.4809"
       id="path1659"
       style="fill:#e4e298;fill-opacity:0.322581;stroke:#e498e0;stroke-width:0;stroke-linecap:round;stroke-linejoin:round;stroke-opacity:1;paint-order:stroke fill markers"
       rx="329.33768"
       ry="0"
       transform="scale(-1,1)" />
    <g
       inkscape:label="Voronoi"
       id="g1831" />
    <g
       inkscape:label="Delaunay"
       id="g1868" />
    <g
       inkscape:label="Delaunay"
       id="g1887" />
    <path
       d="M 0 0 L 640 0 L 640 640 L 0 640 Z"
       style="opacity:0.7;fill:none;fill-opacity:0.701961;stroke:none;stroke-width:0;stroke-linecap:round;stroke-linejoin:round;stroke-miterlimit:4;stroke-dasharray:none;stroke-opacity:0.701961;paint-order:stroke fill markers"
       id="rect5713" />
  </g>
</svg>
