<?xml version="1.0" encoding="UTF-8" standalone="no"?>
<svg
   xmlns:dc="http://purl.org/dc/elements/1.1/"
   xmlns:cc="http://creativecommons.org/ns#"
   xmlns:rdf="http://www.w3.org/1999/02/22-rdf-syntax-ns#"
   xmlns:svg="http://www.w3.org/2000/svg"
   xmlns="http://www.w3.org/2000/svg"
   xmlns:sodipodi="http://sodipodi.sourceforge.net/DTD/sodipodi-0.dtd"
   xmlns:inkscape="http://www.inkscape.org/namespaces/inkscape"
   id="svg1145"
   version="1.1"
   viewBox="0 0 640 640"
   height="640"
   width="640"
   inkscape:version="1.0.1 (c497b03c, 2020-09-10)"
   sodipodi:docname="g08.svg">
  <defs
     id="defs1139">
    <inkscape:path-effect
       effect="mirror_symmetry"
       start_point="0,0"
       end_point="640,640"
       center_point="399.8278,541.44737"
       id="path-effect1249"
       is_visible="true"
       lpeversion="1"
       mode="free"
       discard_orig_path="false"
       fuse_paths="false"
       oposite_fuse="false"
       split_items="true" />
    <pattern
       id="Voronoi7543"
       width="640.0"
       height="640.0"
       patternUnits="userSpaceOnUse">
      <path
         d="M 289.285,75.731 351.668,0.000 M 158.410,0.000 289.285,75.731 M 448.763,106.417 461.355,0.000 M 268.522,141.069 289.285,75.731 M 96.722,0.000 197.582,139.018 M 197.582,139.018 268.522,141.069 M 268.522,141.069 288.060,158.823 M 288.060,158.823 363.327,169.488 M 363.327,169.488 448.763,106.417 M 277.409,210.882 288.060,158.823 M 448.763,106.417 520.218,215.554 M 520.218,215.554 564.207,208.875 M 516.384,224.150 520.218,215.554 M 277.409,210.882 322.392,293.341 M 322.392,293.341 377.861,290.165 M 363.327,169.488 377.861,290.165 M 377.861,290.165 386.867,296.375 M 72.943,265.207 92.949,0.000 M 386.867,296.375 415.007,301.274 M 415.007,301.274 516.384,224.150 M 72.943,265.207 127.843,281.028 M 127.843,281.028 197.582,139.018 M 415.007,301.274 457.701,369.098 M 227.198,342.715 322.392,293.341 M 127.843,281.028 159.892,315.092 M 159.892,315.092 277.409,210.882 M 159.892,315.092 165.922,325.397 M 165.922,325.397 227.198,342.715 M 457.701,369.098 487.888,388.497 M 145.452,383.242 165.922,325.397 M 487.888,388.497 567.683,383.206 M 516.384,224.150 567.683,383.206 M 451.654,485.983 487.888,388.497 M 227.198,342.715 313.631,453.147 M 309.983,456.459 313.631,453.147 M 313.631,453.147 327.567,453.742 M 327.567,453.742 386.867,296.375 M 327.567,453.742 340.286,459.616 M 340.286,459.616 457.701,369.098 M 340.286,459.616 354.618,472.717 M 354.618,472.717 451.654,485.983 M 145.452,383.242 194.921,508.556 M 194.921,508.556 309.983,456.459 M 188.325,522.719 194.921,508.556 M 451.654,485.983 483.645,525.355 M 188.325,522.719 239.030,565.289 M 18.655,491.325 145.452,383.242 M 239.030,565.289 281.845,570.791 M 281.845,570.791 309.983,456.459 M 152.215,547.987 188.325,522.719 M 483.645,525.355 640.000,464.893 M 567.683,383.206 640.000,416.244 M 18.655,491.325 117.783,564.311 M 117.783,564.311 152.215,547.987 M 152.215,547.987 227.782,624.673 M 227.782,624.673 239.030,565.289 M 564.207,208.875 640.000,308.490 M 281.845,570.791 336.781,640.000 M 354.618,472.717 378.637,640.000 M 463.571,640.000 483.645,525.355 M 0.000,267.546 72.943,265.207 M 0.000,490.011 18.655,491.325 M 227.782,624.673 230.529,640.000 M 114.952,640.000 117.783,564.311 M 564.207,208.875 640.000,162.730 "
         style="stroke:#000000;stroke-width:1.0"
         id="path3069" />
    </pattern>
    <pattern
       id="Voronoi8497"
       width="640.0"
       height="640.000004"
       patternUnits="userSpaceOnUse"
       patternTransform="translate(1064.24, 15.786)">
      <path
         d="M 87.727,203.351 246.804,160.371 M 246.804,160.371 288.042,114.874 M 55.755,229.920 87.727,203.351 M 498.879,220.064 507.035,222.521 M 288.042,114.874 419.825,231.671 M 419.825,231.671 498.879,220.064 M 185.816,356.177 246.804,160.371 M 390.164,359.697 419.825,231.671 M 185.816,356.177 384.839,363.228 M 384.839,363.228 390.164,359.697 M 55.755,229.920 146.480,390.833 M 146.480,390.833 185.816,356.177 M 390.164,359.697 498.189,450.268 M 507.035,222.521 640.000,294.451 M 498.189,450.268 507.083,451.874 M 507.083,451.874 640.000,381.435 M 507.083,451.874 543.754,554.837 M 304.048,527.503 384.839,363.228 M 113.135,466.644 146.480,390.833 M 113.135,466.644 197.663,519.785 M 197.663,519.785 304.048,527.503 M 304.048,527.503 369.952,587.365 M 369.952,587.365 498.189,450.268 M 369.952,587.365 391.412,640.000 M 507.567,640.000 543.754,554.837 M 543.754,554.837 640.000,548.379 M 273.741,0.000 288.042,114.874 M 47.104,0.000 87.727,203.351 M 0.000,225.760 55.755,229.920 M 0.000,503.924 113.135,466.644 M 197.663,519.785 204.595,640.000 M 507.035,222.521 640.000,97.075 M 498.879,220.064 551.268,0.000 "
         style="stroke:#000000;stroke-width:1.0"
         id="path5404" />
    </pattern>
    <pattern
       id="Voronoi77"
       width="640.0"
       height="640.0"
       patternUnits="userSpaceOnUse">
      <path
         d="M 321.254,21.524 451.180,169.017 M 306.352,268.534 448.469,189.914 M 448.469,189.914 451.180,169.017 M 165.901,191.334 321.254,21.524 M 165.901,191.334 306.352,268.534 M 151.976,199.222 165.901,191.334 M 306.352,268.534 351.330,392.051 M 448.469,189.914 471.207,363.493 M 351.330,392.051 467.251,374.724 M 467.251,374.724 471.207,363.493 M 151.976,199.222 184.227,411.723 M 142.947,434.670 184.227,411.723 M 184.227,411.723 265.323,442.872 M 265.323,442.872 351.330,392.051 M 467.251,374.724 514.387,457.691 M 471.207,363.493 640.000,287.930 M 451.180,169.017 640.000,129.832 M 265.323,442.872 314.268,640.000 M 367.139,640.000 514.387,457.691 M 0.000,171.214 151.976,199.222 M 0.000,407.122 142.947,434.670 M 0.000,250.740 0.000,250.740 M 64.699,640.000 142.947,434.670 M 514.387,457.691 640.000,522.725 M 321.254,21.524 321.891,0.000 "
         style="stroke:#000000;stroke-width:1.0"
         id="path6010" />
    </pattern>
    <pattern
       id="Voronoi8578"
       width="640.0"
       height="640.0"
       patternUnits="userSpaceOnUse">
      <path
         d="M 314.361,0.000 517.880,112.980 M 517.880,112.980 535.316,113.696 M 65.206,21.257 192.212,145.951 M 154.354,165.827 192.212,145.951 M 192.212,145.951 227.677,136.650 M 227.677,136.650 275.695,0.000 M 0.000,133.946 65.206,21.257 M 0.000,172.095 154.354,165.827 M 227.677,136.650 307.669,230.665 M 307.669,230.665 517.880,112.980 M 117.981,334.354 154.354,165.827 M 117.981,334.354 323.355,286.735 M 307.669,230.665 323.355,286.735 M 93.897,374.241 117.981,334.354 M 535.316,113.696 549.464,357.871 M 549.464,357.871 568.982,364.335 M 93.897,374.241 145.582,450.538 M 323.355,286.735 380.866,404.083 M 380.866,404.083 549.464,357.871 M 375.143,414.320 380.866,404.083 M 375.143,414.320 450.301,539.781 M 145.582,450.538 329.360,450.464 M 329.360,450.464 375.143,414.320 M 450.301,539.781 573.611,599.839 M 568.982,364.335 573.611,599.839 M 0.000,350.116 93.897,374.241 M 59.989,0.000 65.206,21.257 M 31.564,640.000 145.582,450.538 M 286.508,640.000 329.360,450.464 M 446.260,640.000 450.301,539.781 M 573.611,599.839 600.308,640.000 M 568.982,364.335 640.000,369.399 M 535.316,113.696 640.000,22.155 "
         style="stroke:#000000;stroke-width:1.0"
         id="path8004" />
    </pattern>
  </defs>
  <sodipodi:namedview
     inkscape:showpageshadow="false"
     inkscape:pagecheckerboard="true"
     showguides="false"
     id="base"
     pagecolor="#ffffff"
     bordercolor="#666666"
     borderopacity="1.0"
     inkscape:pageopacity="0.82745098"
     inkscape:pageshadow="2"
     inkscape:zoom="0.76016646"
     inkscape:cx="1050.2659"
     inkscape:cy="251.36505"
     inkscape:document-units="px"
     inkscape:current-layer="layer1"
     inkscape:document-rotation="0"
     showgrid="false"
     inkscape:window-width="2507"
     inkscape:window-height="1387"
     inkscape:window-x="53"
     inkscape:window-y="25"
     inkscape:window-maximized="0"
     units="px"
     objecttolerance="10"
     inkscape:snap-to-guides="false"
     inkscape:snap-grids="true"
     gridtolerance="10">
    <inkscape:grid
       type="xygrid"
       id="grid1726"
       dotted="false"
       empspacing="1"
       originx="0"
       originy="0" />
  </sodipodi:namedview>
  <metadata
     id="metadata1142">
    <rdf:RDF>
      <cc:Work
         rdf:about="">
        <dc:format>image/svg+xml</dc:format>
        <dc:type
           rdf:resource="http://purl.org/dc/dcmitype/StillImage" />
        <dc:title />
      </cc:Work>
    </rdf:RDF>
  </metadata>
  <g
     inkscape:label="Layer 1"
     inkscape:groupmode="layer"
     id="layer1">
    <path
       d="M 549.95898 358.02734 L 381.03516 404.33203 L 375.30078 414.58984 L 450.60547 540.30078 L 574.15234 600.48047 L 569.51562 364.50391 L 549.95898 358.02734 z "
       style="opacity:0.7;fill:#98a7e4;fill-opacity:0.701961;stroke:none;stroke-width:0;stroke-linecap:round;stroke-linejoin:round;stroke-miterlimit:4;stroke-dasharray:none;stroke-opacity:0.701961;paint-order:stroke fill markers"
       id="rect6143-0" />
    <path
       d="M 323.41406 286.74805 L 381.03516 404.33203 L 549.95898 358.02734 L 535.7832 113.36133 L 518.31445 112.64453 L 307.69727 230.56641 L 323.41406 286.74805 z "
       style="opacity:0.7;fill:#afe498;fill-opacity:0.7019608;stroke:none;stroke-width:0;stroke-linecap:round;stroke-linejoin:round;stroke-miterlimit:4;stroke-dasharray:none;stroke-opacity:0.701961;paint-order:stroke fill markers"
       id="path8076" />
    <path
       d="M 117.64258 334.46289 L 93.511719 374.42969 L 145.29688 450.87891 L 329.42969 450.80469 L 375.30078 414.58984 L 381.03516 404.33203 L 323.41406 286.74805 L 117.64258 334.46289 z "
       style="opacity:0.7;fill:#ef847b;fill-opacity:0.7019608;stroke:none;stroke-width:0;stroke-linecap:round;stroke-linejoin:round;stroke-miterlimit:4;stroke-dasharray:none;stroke-opacity:0.701961;paint-order:stroke fill markers"
       id="path8074" />
    <path
       d="M 0 350.40234 L 93.511719 374.42969 L 117.64258 334.46289 L 154.08594 165.59766 L 0 171.85547 L 0 350.40234 z "
       style="opacity:0.7;fill:#afe498;fill-opacity:0.7019608;stroke:none;stroke-width:0;stroke-linecap:round;stroke-linejoin:round;stroke-miterlimit:4;stroke-dasharray:none;stroke-opacity:0.701961;paint-order:stroke fill markers"
       id="path8072" />
    <path
       d="M 31.492188 640 L 145.29688 450.87891 L 93.511719 374.42969 L 0 350.40234 L 0 640 L 31.492188 640 z "
       style="opacity:0.7;fill:#98a7e4;fill-opacity:0.701961;stroke:none;stroke-width:0;stroke-linecap:round;stroke-linejoin:round;stroke-miterlimit:4;stroke-dasharray:none;stroke-opacity:0.701961;paint-order:stroke fill markers"
       id="path8070" />
    <path
       d="M 286.6582 640 L 329.42969 450.80469 L 145.29688 450.87891 L 31.492188 640 L 286.6582 640 z "
       style="opacity:0.7;fill:#afe498;fill-opacity:0.7019608;stroke:none;stroke-width:0;stroke-linecap:round;stroke-linejoin:round;stroke-miterlimit:4;stroke-dasharray:none;stroke-opacity:0.701961;paint-order:stroke fill markers"
       id="path8068" />
    <path
       d="M 446.58594 640 L 450.60547 540.30078 L 375.30078 414.58984 L 329.42969 450.80469 L 286.6582 640 L 446.58594 640 z "
       style="opacity:0.7;fill:#e498e0;fill-opacity:0.7019608;stroke:none;stroke-width:0;stroke-linecap:round;stroke-linejoin:round;stroke-miterlimit:4;stroke-dasharray:none;stroke-opacity:0.701961;paint-order:stroke fill markers"
       id="path8066" />
    <path
       d="M 600.42383 640 L 574.15234 600.48047 L 450.60547 540.30078 L 446.58594 640 L 600.42383 640 z "
       style="opacity:0.7;fill:#afe498;fill-opacity:0.7019608;stroke:none;stroke-width:0;stroke-linecap:round;stroke-linejoin:round;stroke-miterlimit:4;stroke-dasharray:none;stroke-opacity:0.701961;paint-order:stroke fill markers"
       id="path8064" />
    <path
       d="M 640 369.53125 L 569.51562 364.50391 L 574.15234 600.48047 L 600.42383 640 L 640 640 L 640 369.53125 z "
       style="opacity:0.7;fill:#ef847b;fill-opacity:0.7019608;stroke:none;stroke-width:0;stroke-linecap:round;stroke-linejoin:round;stroke-miterlimit:4;stroke-dasharray:none;stroke-opacity:0.701961;paint-order:stroke fill markers"
       id="path8062" />
    <path
       d="M 640 245.10156 L 542.0918 222.25586 L 549.95898 358.02734 L 569.51562 364.50391 L 640 369.53125 L 640 245.10156 z "
       style="opacity:0.7;fill:#e498e0;fill-opacity:0.7019608;stroke:none;stroke-width:0;stroke-linecap:round;stroke-linejoin:round;stroke-miterlimit:4;stroke-dasharray:none;stroke-opacity:0.701961;paint-order:stroke fill markers"
       id="path8060" />
    <path
       d="M 640 22.222656 L 535.7832 113.36133 L 542.0918 222.25586 L 640 245.10156 L 640 22.222656 z "
       style="opacity:0.7;fill:#ef847b;fill-opacity:0.7019608;stroke:none;stroke-width:0;stroke-linecap:round;stroke-linejoin:round;stroke-miterlimit:4;stroke-dasharray:none;stroke-opacity:0.701961;paint-order:stroke fill markers"
       id="path8081" />
    <path
       d="M 315.41602 0 L 518.31445 112.64453 L 535.7832 113.36133 L 640 22.222656 L 640 0 L 315.41602 0 z "
       style="opacity:0.7;fill:#98a7e4;fill-opacity:0.701961;stroke:none;stroke-width:0;stroke-linecap:round;stroke-linejoin:round;stroke-miterlimit:4;stroke-dasharray:none;stroke-opacity:0.701961;paint-order:stroke fill markers"
       id="path8058" />
    <path
       d="M 227.55078 136.36133 L 307.69727 230.56641 L 518.31445 112.64453 L 315.41602 0 L 275.46484 0 L 227.55078 136.36133 z "
       style="opacity:0.7;fill:#ef847b;fill-opacity:0.7019608;stroke:none;stroke-width:0;stroke-linecap:round;stroke-linejoin:round;stroke-miterlimit:4;stroke-dasharray:none;stroke-opacity:0.701961;paint-order:stroke fill markers"
       id="path8056" />
    <path
       d="M 192.01758 145.68164 L 154.08594 165.59766 L 117.64258 334.46289 L 323.41406 286.74805 L 307.69727 230.56641 L 227.55078 136.36133 L 192.01758 145.68164 z "
       style="opacity:0.7;fill:#e498e0;fill-opacity:0.7019608;stroke:none;stroke-width:0;stroke-linecap:round;stroke-linejoin:round;stroke-miterlimit:4;stroke-dasharray:none;stroke-opacity:0.701961;paint-order:stroke fill markers"
       id="path8054" />
    <path
       d="M 64.765625 20.738281 L 0 132.67383 L 0 171.85547 L 154.08594 165.59766 L 192.01758 145.68164 L 64.765625 20.738281 z "
       style="opacity:0.7;fill:#98a7e4;fill-opacity:0.701961;stroke:none;stroke-width:0;stroke-linecap:round;stroke-linejoin:round;stroke-miterlimit:4;stroke-dasharray:none;stroke-opacity:0.701961;paint-order:stroke fill markers"
       id="path8052" />
    <path
       d="M 59.677734 0 L 0 0 L 0 132.67383 L 64.765625 20.738281 L 59.677734 0 z "
       style="opacity:0.7;fill:#ef847b;fill-opacity:0.7019608;stroke:none;stroke-width:0;stroke-linecap:round;stroke-linejoin:round;stroke-miterlimit:4;stroke-dasharray:none;stroke-opacity:0.701961;paint-order:stroke fill markers"
       id="path8050" />
    <path
       d="M 59.677734 0 L 64.765625 20.738281 L 192.01758 145.68164 L 227.55078 136.36133 L 275.46484 0 L 59.677734 0 z "
       style="opacity:0.7;fill:#afe498;fill-opacity:0.7019608;stroke:none;stroke-width:0;stroke-linecap:round;stroke-linejoin:round;stroke-miterlimit:4;stroke-dasharray:none;stroke-opacity:0.701961;paint-order:stroke fill markers"
       id="path8048" />
    <rect
       style="fill:#98a7e4;fill-opacity:1;stroke:none;stroke-width:0.841391;stroke-linecap:round;stroke-linejoin:round;stroke-miterlimit:4;stroke-dasharray:none;paint-order:stroke fill markers;opacity:0.7"
       id="rect1046"
       width="100"
       height="100"
       x="800"
       y="-8.7890623e-07" />
    <rect
       style="fill:#afe498;fill-opacity:1;stroke:none;stroke-width:0.846716;stroke-linecap:round;stroke-linejoin:round;stroke-miterlimit:4;stroke-dasharray:none;paint-order:stroke fill markers;opacity:0.7"
       id="rect1048"
       width="100"
       height="100"
       x="800"
       y="131.74977" />
    <rect
       style="fill:#f0857a;fill-opacity:1;stroke:none;stroke-width:0.888781;stroke-linecap:round;stroke-linejoin:round;stroke-miterlimit:4;stroke-dasharray:none;paint-order:stroke fill markers;opacity:0.7"
       id="rect1050"
       width="100"
       height="100"
       x="800"
       y="271.3418" />
    <rect
       style="fill:#e498e0;fill-opacity:1;stroke:none;stroke-width:0.875195;stroke-linecap:round;stroke-linejoin:round;stroke-miterlimit:4;stroke-dasharray:none;paint-order:stroke fill markers;opacity:0.7"
       id="rect1052"
       width="100"
       height="100"
       x="800"
       y="399.95465" />
    <ellipse
       cy="-365.13449"
       cx="362.4809"
       id="path1659"
       style="fill:#e4e298;fill-opacity:0.322581;stroke:#e498e0;stroke-width:0;stroke-linecap:round;stroke-linejoin:round;stroke-opacity:1;paint-order:stroke fill markers"
       rx="329.33768"
       ry="0"
       transform="scale(-1,1)" />
    <g
       inkscape:label="Voronoi"
       id="g1831" />
    <g
       inkscape:label="Delaunay"
       id="g1868" />
    <g
       inkscape:label="Delaunay"
       id="g1887" />
    <rect
       style="fill:none;fill-opacity:0.701961;opacity:0.7;paint-order:stroke fill markers;stroke:none;stroke-dasharray:none;stroke-linecap:round;stroke-linejoin:round;stroke-miterlimit:4;stroke-opacity:0.701961;stroke-width:0"
       id="rect6143"
       width="640"
       height="640"
       x="0"
       y="0" />
  </g>
</svg>
