<?xml version="1.0" encoding="UTF-8" standalone="no"?>
<svg
   xmlns:dc="http://purl.org/dc/elements/1.1/"
   xmlns:cc="http://creativecommons.org/ns#"
   xmlns:rdf="http://www.w3.org/1999/02/22-rdf-syntax-ns#"
   xmlns:svg="http://www.w3.org/2000/svg"
   xmlns="http://www.w3.org/2000/svg"
   xmlns:sodipodi="http://sodipodi.sourceforge.net/DTD/sodipodi-0.dtd"
   xmlns:inkscape="http://www.inkscape.org/namespaces/inkscape"
   id="svg1145"
   version="1.1"
   viewBox="0 0 640 640"
   height="640"
   width="640"
   inkscape:version="1.0.1 (c497b03c, 2020-09-10)"
   sodipodi:docname="g10.svg">
  <defs
     id="defs1139" />
  <sodipodi:namedview
     gridtolerance="10"
     inkscape:snap-grids="true"
     inkscape:snap-to-guides="false"
     objecttolerance="10"
     units="px"
     inkscape:window-maximized="1"
     inkscape:window-y="25"
     inkscape:window-x="57"
     inkscape:window-height="1387"
     inkscape:window-width="2503"
     showgrid="false"
     inkscape:document-rotation="0"
     inkscape:current-layer="layer1"
     inkscape:document-units="px"
     inkscape:cy="49.999999"
     inkscape:cx="850"
     inkscape:zoom="2.4296261"
     inkscape:pageshadow="2"
     inkscape:pageopacity="0.82745098"
     borderopacity="1.0"
     bordercolor="#666666"
     pagecolor="#ffffff"
     id="base"
     showguides="false"
     inkscape:pagecheckerboard="true"
     inkscape:showpageshadow="false">
    <inkscape:grid
       originy="0"
       originx="0"
       empspacing="1"
       dotted="false"
       id="grid1726"
       type="xygrid" />
  </sodipodi:namedview>
  <metadata
     id="metadata1142">
    <rdf:RDF>
      <cc:Work
         rdf:about="">
        <dc:format>image/svg+xml</dc:format>
        <dc:type
           rdf:resource="http://purl.org/dc/dcmitype/StillImage" />
        <dc:title />
      </cc:Work>
    </rdf:RDF>
  </metadata>
  <g
     id="layer1"
     inkscape:groupmode="layer"
     inkscape:label="Layer 1">
    <rect
       y="-8.7890623e-07"
       x="800"
       height="100"
       width="100"
       id="rect1046"
       style="fill:#98a7e4;fill-opacity:1;stroke:none;stroke-width:0.841391;stroke-linecap:round;stroke-linejoin:round;stroke-miterlimit:4;stroke-dasharray:none;paint-order:stroke fill markers" />
    <rect
       y="131.74977"
       x="800"
       height="100"
       width="100"
       id="rect1048"
       style="fill:#afe498;fill-opacity:1;stroke:none;stroke-width:0.846716;stroke-linecap:round;stroke-linejoin:round;stroke-miterlimit:4;stroke-dasharray:none;paint-order:stroke fill markers" />
    <rect
       y="271.3418"
       x="800"
       height="100"
       width="100"
       id="rect1050"
       style="fill:#f0857a;fill-opacity:1;stroke:none;stroke-width:0.888781;stroke-linecap:round;stroke-linejoin:round;stroke-miterlimit:4;stroke-dasharray:none;paint-order:stroke fill markers" />
    <rect
       y="399.95465"
       x="800"
       height="100"
       width="100"
       id="rect1052"
       style="fill:#e498e0;fill-opacity:1;stroke:none;stroke-width:0.875195;stroke-linecap:round;stroke-linejoin:round;stroke-miterlimit:4;stroke-dasharray:none;paint-order:stroke fill markers" />
    <path
       id="rect991"
       style="fill:#98a7e4;fill-opacity:1;stroke:#e498e0;stroke-width:0.364717;stroke-linecap:round;stroke-linejoin:round;stroke-opacity:1;paint-order:stroke fill markers"
       d="M 467 640 C 455 620 438 603 420 589 C 388 565 347 551 306 553 C 260 554 215 576 184 611 C 177 619 170 631 165 640 C 192 640 467 640 467 640 Z"
       sodipodi:nodetypes="cccccc" />
    <path
       d="M 132 445 C 70 484 23 546 0 616 L 0 640 L 165 640 C 182 606 213 580 248 565 C 210 525 170 484 132 445 Z"
       style="fill:#e498e0;fill-opacity:1;stroke-width:0.364717;stroke-linecap:round;stroke-linejoin:round;paint-order:stroke fill markers"
       id="path1043"
       sodipodi:nodetypes="cccccc" />
    <path
       d="M 505 448 C 422 391 313 374 217 405 C 185 412 157 426 132 445 C 171 485 209 525 248 565 C 285 549 343 548 388 569 C 427 529 466 488 505 448 Z"
       style="fill:#afe498;fill-opacity:1;stroke-width:0.364717;stroke-linecap:round;stroke-linejoin:round;paint-order:stroke fill markers"
       id="path1204"
       sodipodi:nodetypes="cccccc" />
    <path
       d="M 505 448 C 466 488 427 529 388 569 C 420 585 448 610 467 640 C 525 640 582 640 640 640 C 640 633 640 627 640 620 C 614 551 566 489 505 448 Z"
       style="fill:#e498e0;fill-opacity:1;stroke-width:0.364717;stroke-linecap:round;stroke-linejoin:round;paint-order:stroke fill markers"
       id="path1207" />
    <path
       d="M 105 277 C 67 295 32 317 0 344 C 0 434 0 525 0 616 C 29 526 101 452 187 416 C 160 370 132 323 105 277 Z"
       style="fill:#f0857a;fill-opacity:1;stroke-width:0.364717;stroke-linecap:round;stroke-linejoin:round;paint-order:stroke fill markers"
       id="path1041" />
    <path
       d="M 536 276 C 422 222 288 211 169 251 C 147 258 125 267 105 277 C 132 323 160 370 187 416 C 271 380 369 382 451 418 C 479 371 508 324 536 276 Z"
       style="fill:#98a7e4;fill-opacity:1;stroke-width:0.364717;stroke-linecap:round;stroke-linejoin:round;paint-order:stroke fill markers"
       id="path1181" />
    <path
       d="M 536 276 C 508 324 479 371 451 418 C 538 456 607 531 640 620 C 640 528 640 436 640 344 C 608 317 573 294 536 276 Z"
       style="fill:#f0857a;fill-opacity:1;stroke-width:0.364717;stroke-linecap:round;stroke-linejoin:round;paint-order:stroke fill markers"
       id="path1191" />
    <path
       d="M 320 0 C 213 0 107 0 0 0 C 0 50 0 99 0 149 C 97 94 208 64 320 64 C 320 42 320 21 320 0 Z"
       style="fill:#98a7e4;fill-opacity:1;stroke-width:0.364717;stroke-linecap:round;stroke-linejoin:round;paint-order:stroke fill markers"
       id="path1039" />
    <path
       d="M 320 0 C 320 21 320 42 320 64 C 431 63 543 91 640 145 C 640 97 640 48 640 0 C 533 0 427 0 320 0 Z"
       style="fill:#f0857a;fill-opacity:1;stroke-width:0.364717;stroke-linecap:round;stroke-linejoin:round;paint-order:stroke fill markers"
       id="path1213" />
    <path
       d="M 162 253 C 142 203 122 153 101 103 C 66 115 32 131 0 149 C 0 214 0 279 0 344 C 48 304 103 273 162 253 Z"
       style="fill:#afe498;fill-opacity:1;stroke-width:0.364717;stroke-linecap:round;stroke-linejoin:round;paint-order:stroke fill markers"
       id="path1037" />
    <path
       d="M 540 100 C 519 151 498 202 478 253 C 537 272 592 304 640 344 C 640 278 640 211 640 145 C 608 127 575 112 540 100 Z"
       style="fill:#afe498;fill-opacity:1;stroke-width:0.364717;stroke-linecap:round;stroke-linejoin:round;paint-order:stroke fill markers"
       id="path1136" />
    <path
       d="M 327 64 C 251 63 173 77 101 103 C 122 153 142 203 162 253 C 264 218 376 218 478 253 C 498 202 519 151 540 100 C 472 76 400 64 327 64 Z"
       style="fill:#e498e0;fill-opacity:1;stroke-width:0.364717;stroke-linecap:round;stroke-linejoin:round;paint-order:stroke fill markers"
       id="path1157" />
  </g>
</svg>
