<?xml version="1.0" encoding="UTF-8" standalone="no"?>
<svg
   xmlns:dc="http://purl.org/dc/elements/1.1/"
   xmlns:cc="http://creativecommons.org/ns#"
   xmlns:rdf="http://www.w3.org/1999/02/22-rdf-syntax-ns#"
   xmlns:svg="http://www.w3.org/2000/svg"
   xmlns="http://www.w3.org/2000/svg"
   xmlns:sodipodi="http://sodipodi.sourceforge.net/DTD/sodipodi-0.dtd"
   xmlns:inkscape="http://www.inkscape.org/namespaces/inkscape"
   sodipodi:docname="g11.svg"
   inkscape:version="1.0.1 (c497b03c, 2020-09-10)"
   width="640"
   height="640"
   viewBox="0 0 640 640"
   version="1.1"
   id="svg1145">
  <defs
     id="defs1139" />
  <sodipodi:namedview
     id="base"
     pagecolor="#ffffff"
     bordercolor="#666666"
     borderopacity="1.0"
     inkscape:pageopacity="0.0"
     inkscape:pageshadow="2"
     inkscape:zoom="1.0535252"
     inkscape:cx="97.5"
     inkscape:cy="410.5"
     inkscape:document-units="px"
     inkscape:current-layer="layer1"
     inkscape:document-rotation="0"
     showgrid="false"
     inkscape:window-width="1934"
     inkscape:window-height="1163"
     inkscape:window-x="50"
     inkscape:window-y="25"
     inkscape:window-maximized="0"
     units="px"
     objecttolerance="10"
     inkscape:snap-to-guides="false"
     inkscape:snap-grids="true"
     gridtolerance="10">
    <inkscape:grid
       type="xygrid"
       id="grid1726"
       dotted="false"
       empspacing="1"
       originx="0"
       originy="0" />
  </sodipodi:namedview>
  <metadata
     id="metadata1142">
    <rdf:RDF>
      <cc:Work
         rdf:about="">
        <dc:format>image/svg+xml</dc:format>
        <dc:type
           rdf:resource="http://purl.org/dc/dcmitype/StillImage" />
        <dc:title />
      </cc:Work>
    </rdf:RDF>
  </metadata>
  <g
     inkscape:label="Layer 1"
     inkscape:groupmode="layer"
     id="layer1">
    <path
       id="rect1708"
       style="fill:#e498e0;fill-opacity:1;stroke:none;stroke-width:15.2304;stroke-linecap:round;stroke-linejoin:round;stroke-miterlimit:4;stroke-dasharray:none;stroke-opacity:0.96371;paint-order:stroke fill markers"
       d="M 195 275 C 131 258 66 247 0 241 C 0 354 0 467 0 580 C 83 492 149 387 195 275 Z" />
    <path
       id="path887"
       style="fill:#afe498;fill-opacity:1;stroke:none;stroke-width:15.2304;stroke-linecap:round;stroke-linejoin:round;stroke-miterlimit:4;stroke-dasharray:none;stroke-opacity:0.96371;paint-order:stroke fill markers"
       d="M 272 508 C 218 483 161 463 103 449 C 73 496 38 540 0 580 C 0 600 0 620 0 640 C 64 640 127 640 191 640 C 220 597 247 553 272 508 Z" />
    <path
       id="path978"
       style="fill:#f0857a;fill-opacity:1;stroke:none;stroke-width:15.2304;stroke-linecap:round;stroke-linejoin:round;stroke-miterlimit:4;stroke-dasharray:none;stroke-opacity:0.96371;paint-order:stroke fill markers"
       d="M 195 275 C 170 336 139 394 103 449 C 161 463 218 483 272 508 C 305 450 335 390 360 329 C 307 306 252 288 195 275 Z" />
    <path
       id="path857"
       style="fill:#f0857a;fill-opacity:1;stroke:none;stroke-width:15.2304;stroke-linecap:round;stroke-linejoin:round;stroke-miterlimit:4;stroke-dasharray:none;stroke-opacity:0.96371;paint-order:stroke fill markers"
       d="M 146 91 C 98 81 49 73 0 68 C 0 125 0 183 0 241 C 28 243 56 247 84 252 C 109 200 130 146 146 91 Z" />
    <path
       id="path1005"
       style="fill:#afe498;fill-opacity:1;stroke:none;stroke-width:15.2304;stroke-linecap:round;stroke-linejoin:round;stroke-miterlimit:4;stroke-dasharray:none;stroke-opacity:0.96371;paint-order:stroke fill markers"
       d="M 146 91 C 130 146 109 200 84 252 C 144 261 203 275 261 293 C 283 243 302 192 316 139 C 261 119 204 103 146 91 Z" />
    <path
       id="path969"
       style="fill:#98a0e4;fill-opacity:1;stroke:none;stroke-width:15.2304;stroke-linecap:round;stroke-linejoin:round;stroke-miterlimit:4;stroke-dasharray:none;stroke-opacity:0.96371;paint-order:stroke fill markers"
       d="M 316 139 C 302 192 283 243 261 293 C 295 303 328 315 360 329 C 380 280 397 230 410 179 C 380 164 348 151 316 139 Z" />
    <path
       id="path942"
       style="fill:#e498e0;fill-opacity:1;stroke:none;stroke-width:15.2304;stroke-linecap:round;stroke-linejoin:round;stroke-miterlimit:4;stroke-dasharray:none;stroke-opacity:0.96371;paint-order:stroke fill markers"
       d="m 435,49 c -36.34987,2.491314 -89.69438,9.808845 -117,15 -39.03824,7.421676 -105.46691,19.572341 -138,34 30.68776,7.80096 63.54515,16.12744 93.56617,26.33278 C 318.03215,138.3012 367.79926,159.2384 410,179 419.40256,146.20197 430.83167,87.863297 435,49 Z"
       sodipodi:nodetypes="cscccc" />
    <path
       id="path1014"
       style="fill:#98a0e4;fill-opacity:1;stroke:none;stroke-width:15.2304;stroke-linecap:round;stroke-linejoin:round;stroke-miterlimit:4;stroke-dasharray:none;stroke-opacity:0.96371;paint-order:stroke fill markers"
       d="M 0,0 C 0,22.666667 0,45.333333 0,68 60,74 121,84 180,98 263,73 349,56 435,49 437.81314,33.69781 439.76934,17.532851 440,0 293.33333,0 146.66667,0 0,0 Z"
       sodipodi:nodetypes="cccccc" />
    <path
       id="path843"
       style="fill:#98a7e4;fill-opacity:1;stroke:none;stroke-width:15.2304;stroke-linecap:round;stroke-linejoin:round;stroke-miterlimit:4;stroke-dasharray:none;stroke-opacity:0.96371;paint-order:stroke fill markers"
       d="M 442 505 C 398 482 352 462 306 446 C 279 498 249 550 217 600 C 295 577 371 544 442 505 Z" />
    <path
       id="path1023"
       style="fill:#f0857a;fill-opacity:1;stroke:none;stroke-width:15.2304;stroke-linecap:round;stroke-linejoin:round;stroke-miterlimit:4;stroke-dasharray:none;stroke-opacity:0.96371;paint-order:stroke fill markers"
       d="M 442 505 C 371 544 295 577 217 600 C 208 613 200 627 191 640 C 341 640 490 640 640 640 C 580 587 513 541 442 505 Z" />
    <path
       id="path866"
       style="fill:#e498e0;fill-opacity:1;stroke:none;stroke-width:15.2304;stroke-linecap:round;stroke-linejoin:round;stroke-miterlimit:4;stroke-dasharray:none;stroke-opacity:0.96371;paint-order:stroke fill markers"
       d="M 555 345 C 504 306 449 272 391 244 C 369 314 340 381 306 446 C 363 466 419 491 472 521 C 505 465 532 406 555 345 Z" />
    <path
       id="path957"
       style="fill:#98a7e4;fill-opacity:1;stroke:none;stroke-width:15.2304;stroke-linecap:round;stroke-linejoin:round;stroke-miterlimit:4;stroke-dasharray:none;stroke-opacity:0.96371;paint-order:stroke fill markers"
       d="M 555 345 C 532 406 505 465 472 521 C 532 554 588 594 640 640 C 640 566 640 492 640 418 C 613 392 584 368 555 345 Z" />
    <path
       id="path896"
       style="fill:#afe498;fill-opacity:1;stroke:none;stroke-width:15.2304;stroke-linecap:round;stroke-linejoin:round;stroke-miterlimit:4;stroke-dasharray:none;stroke-opacity:0.96371;paint-order:stroke fill markers"
       d="M 424 118 C 416 161 405 203 391 244 C 483 289 567 348 640 418 C 640 366 640 314 640 262 C 575 205 502 156 424 118 Z" />
    <path
       id="path875"
       style="fill:#f0857a;fill-opacity:1;stroke:none;stroke-width:15.2304;stroke-linecap:round;stroke-linejoin:round;stroke-miterlimit:4;stroke-dasharray:none;stroke-opacity:0.96371;paint-order:stroke fill markers"
       d="M 424 118 C 502 156 575 205 640 262 C 640 175 640 87 640 0 C 573 0 507 0 440 0 C 437 39 432 79 424 118 Z" />
    <path
       sodipodi:nodetypes="cc"
       id="path846"
       d="M 881 -106 C 1015 182 1053 465 960 742"
       style="fill:none;stroke:#000000;stroke-width:1px;stroke-linecap:butt;stroke-linejoin:miter;stroke-opacity:1" />
  </g>
</svg>
