<?xml version="1.0" encoding="UTF-8" standalone="no"?>
<svg
   xmlns:dc="http://purl.org/dc/elements/1.1/"
   xmlns:cc="http://creativecommons.org/ns#"
   xmlns:rdf="http://www.w3.org/1999/02/22-rdf-syntax-ns#"
   xmlns:svg="http://www.w3.org/2000/svg"
   xmlns="http://www.w3.org/2000/svg"
   xmlns:sodipodi="http://sodipodi.sourceforge.net/DTD/sodipodi-0.dtd"
   xmlns:inkscape="http://www.inkscape.org/namespaces/inkscape"
   sodipodi:docname="g12.svg"
   inkscape:version="1.0.1 (c497b03c, 2020-09-10)"
   width="640"
   height="640"
   viewBox="0 0 640 640"
   version="1.1"
   id="svg1145">
  <defs
     id="defs1139" />
  <sodipodi:namedview
     inkscape:showpageshadow="false"
     inkscape:pagecheckerboard="true"
     showguides="false"
     id="base"
     pagecolor="#ffffff"
     bordercolor="#666666"
     borderopacity="1.0"
     inkscape:pageopacity="0.82745098"
     inkscape:pageshadow="2"
     inkscape:zoom="1.1167647"
     inkscape:cx="312.11004"
     inkscape:cy="259.06693"
     inkscape:document-units="px"
     inkscape:current-layer="layer1"
     inkscape:document-rotation="0"
     showgrid="false"
     inkscape:window-width="2503"
     inkscape:window-height="1387"
     inkscape:window-x="57"
     inkscape:window-y="25"
     inkscape:window-maximized="1"
     units="px"
     objecttolerance="10"
     inkscape:snap-to-guides="false"
     inkscape:snap-grids="true"
     gridtolerance="10">
    <inkscape:grid
       type="xygrid"
       id="grid1726"
       dotted="false"
       empspacing="1"
       originx="0"
       originy="0" />
  </sodipodi:namedview>
  <metadata
     id="metadata1142">
    <rdf:RDF>
      <cc:Work
         rdf:about="">
        <dc:format>image/svg+xml</dc:format>
        <dc:type
           rdf:resource="http://purl.org/dc/dcmitype/StillImage" />
        <dc:title />
      </cc:Work>
    </rdf:RDF>
  </metadata>
  <g
     inkscape:label="Layer 1"
     inkscape:groupmode="layer"
     id="layer1">
    <rect
       style="fill:#98a7e4;fill-opacity:1;stroke:none;stroke-width:0.841391;stroke-linecap:round;stroke-linejoin:round;stroke-miterlimit:4;stroke-dasharray:none;paint-order:stroke fill markers"
       id="rect1046"
       width="100"
       height="100"
       x="800"
       y="-8.7890623e-07" />
    <rect
       style="fill:#afe498;fill-opacity:1;stroke:none;stroke-width:0.846716;stroke-linecap:round;stroke-linejoin:round;stroke-miterlimit:4;stroke-dasharray:none;paint-order:stroke fill markers"
       id="rect1048"
       width="100"
       height="100"
       x="800"
       y="131.74977" />
    <rect
       style="fill:#f0857a;fill-opacity:1;stroke:none;stroke-width:0.888781;stroke-linecap:round;stroke-linejoin:round;stroke-miterlimit:4;stroke-dasharray:none;paint-order:stroke fill markers"
       id="rect1050"
       width="100"
       height="100"
       x="800"
       y="271.3418" />
    <rect
       style="fill:#e498e0;fill-opacity:1;stroke:none;stroke-width:0.875195;stroke-linecap:round;stroke-linejoin:round;stroke-miterlimit:4;stroke-dasharray:none;paint-order:stroke fill markers"
       id="rect1052"
       width="100"
       height="100"
       x="800"
       y="399.95465" />
    <path
       d="M 128 462 L 0 462 L 0 640 L 244 640 L 244 569 L 128 569 L 128 462 Z"
       style="fill:#e498e0;fill-opacity:1;stroke:none;stroke-width:0.153141;stroke-linecap:round;stroke-linejoin:round;stroke-miterlimit:4;stroke-dasharray:none;paint-order:stroke fill markers"
       id="rect2484" />
    <path
       d="M 128 462 L 128 569 L 244 569 L 244 462 L 128 462 Z"
       style="fill:#98a7e4;fill-opacity:1;stroke:none;stroke-width:0.153141;stroke-linecap:round;stroke-linejoin:round;stroke-miterlimit:4;stroke-dasharray:none;paint-order:stroke fill markers"
       id="path2582" />
    <path
       sodipodi:nodetypes="ccccccc"
       d="m 337,544 c 0,32 0,64 0,96 101,0 202,0 303,0 0,-67.66667 0,-135.33333 0,-203 -21.33333,0 -42.66667,0 -64,0 0,35.66667 0,71.33333 0,107 -79.66667,0 -159.33333,0 -239,0 z"
       style="fill:#98a7e4;fill-opacity:1;stroke:none;stroke-width:0.153141;stroke-linecap:round;stroke-linejoin:round;stroke-miterlimit:4;stroke-dasharray:none;paint-order:stroke fill markers"
       id="path2540" />
    <path
       sodipodi:nodetypes="ccccc"
       d="m 337,544 c 79.66667,0 159.33333,0 239,0 0,-35.66667 0,-71.33333 0,-107 -79.66667,0 -159.33333,0 -239,0 0,35.66667 0,71.33333 0,107 z"
       style="fill:#afe498;fill-opacity:1;stroke:none;stroke-width:0.153141;stroke-linecap:round;stroke-linejoin:round;stroke-miterlimit:4;stroke-dasharray:none;paint-order:stroke fill markers"
       id="path2558" />
    <path
       sodipodi:nodetypes="ccccc"
       d="m 516,244 c 0,64.33333 0,128.66667 0,193 41.33333,0 82.66667,0 124,0 0,-64.33333 0,-128.66667 0,-193 -41.33333,0 -82.66667,0 -124,0 z"
       style="fill:#e498e0;fill-opacity:1;stroke:none;stroke-width:0.153141;stroke-linecap:round;stroke-linejoin:round;stroke-miterlimit:4;stroke-dasharray:none;paint-order:stroke fill markers"
       id="path2546" />
    <path
       sodipodi:nodetypes="ccccc"
       d="m 244,437 c 0,67.66667 0,135.33333 0,203 31,0 62,0 93,0 0,-67.66667 0,-135.33333 0,-203 -31,0 -62,0 -93,0 z"
       style="fill:#f0857a;fill-opacity:1;stroke:none;stroke-width:0.153141;stroke-linecap:round;stroke-linejoin:round;stroke-miterlimit:4;stroke-dasharray:none;paint-order:stroke fill markers"
       id="path2552" />
    <path
       sodipodi:nodetypes="ccccc"
       d="m 0,345 c 0,39 0,78 0,117 81.333333,0 162.66667,0 244,0 0,-39 0,-78 0,-117 -81.33333,0 -162.666667,0 -244,0 z"
       style="fill:#afe498;fill-opacity:1;stroke:none;stroke-width:0.153141;stroke-linecap:round;stroke-linejoin:round;stroke-miterlimit:4;stroke-dasharray:none;paint-order:stroke fill markers"
       id="path2576" />
    <path
       sodipodi:nodetypes="ccccc"
       d="m 400,437 c 0,-45.66667 0,-91.33333 0,-137 -52,0 -104,0 -156,0 0,45.66667 0,91.33333 0,137 52,0 104,0 156,0 z"
       style="fill:#e498e0;fill-opacity:1;stroke:none;stroke-width:0.153141;stroke-linecap:round;stroke-linejoin:round;stroke-miterlimit:4;stroke-dasharray:none;paint-order:stroke fill markers"
       id="path2566" />
    <path
       sodipodi:nodetypes="ccccc"
       d="m 400,244 c 0,64.33333 0,128.66667 0,193 38.66667,0 77.33333,0 116,0 0,-64.33333 0,-128.66667 0,-193 -38.66667,0 -77.33333,0 -116,0 z"
       style="fill:#98a7e4;fill-opacity:1;stroke:none;stroke-width:0.153141;stroke-linecap:round;stroke-linejoin:round;stroke-miterlimit:4;stroke-dasharray:none;paint-order:stroke fill markers"
       id="path2564" />
    <path
       sodipodi:nodetypes="ccccc"
       d="m 244,150 c 0,50 0,100 0,150 52,0 104,0 156,0 0,-50 0,-100 0,-150 -52,0 -104,0 -156,0 z"
       style="fill:#f0857a;fill-opacity:1;stroke:none;stroke-width:0.153141;stroke-linecap:round;stroke-linejoin:round;stroke-miterlimit:4;stroke-dasharray:none;paint-order:stroke fill markers"
       id="path2573" />
    <path
       sodipodi:nodetypes="ccccccc"
       d="m 400,150 c 0,31.33333 0,62.66667 0,94 80,0 160,0 240,0 0,-81.33333 0,-162.666667 0,-244 -43.33333,0 -86.66667,0 -130,0 0,50 0,100 0,150 -36.66667,0 -73.33333,0 -110,0 z"
       style="fill:#afe498;fill-opacity:1;stroke:none;stroke-width:0.153141;stroke-linecap:round;stroke-linejoin:round;stroke-miterlimit:4;stroke-dasharray:none;paint-order:stroke fill markers"
       id="path2536" />
    <path
       sodipodi:nodetypes="ccccc"
       d="m 244,150 c 88.66667,0 177.33333,0 266,0 0,-50 0,-100 0,-150 -88.66667,0 -177.33333,0 -266,0 0,50 0,100 0,150 z"
       style="fill:#98a7e4;fill-opacity:1;stroke:none;stroke-width:0.153141;stroke-linecap:round;stroke-linejoin:round;stroke-miterlimit:4;stroke-dasharray:none;paint-order:stroke fill markers"
       id="path2530" />
    <path
       sodipodi:nodetypes="ccccccc"
       d="m 0,149 c 0,65.33333 0,130.66667 0,196 81.333333,0 162.66667,0 244,0 0,-33.66667 0,-67.33333 0,-101 -40.66667,0 -81.33333,0 -122,0 0,-31.66667 0,-63.33333 0,-95 -40.666667,0 -81.333333,0 -122,0 z"
       style="fill:#98a7e4;fill-opacity:1;stroke:none;stroke-width:0.153141;stroke-linecap:round;stroke-linejoin:round;stroke-miterlimit:4;stroke-dasharray:none;paint-order:stroke fill markers"
       id="path2507" />
    <path
       sodipodi:nodetypes="ccccc"
       d="m 0,149 c 40.666667,0 81.333333,0 122,0 0,-49.666667 0,-99.333333 0,-149 C 81.333333,0 40.666667,0 0,0 0,49.666667 0,99.333333 0,149 Z"
       style="fill:#f0857a;fill-opacity:1;stroke:none;stroke-width:0.153141;stroke-linecap:round;stroke-linejoin:round;stroke-miterlimit:4;stroke-dasharray:none;paint-order:stroke fill markers"
       id="path2588" />
    <path
       sodipodi:nodetypes="ccccc"
       d="m 122,0 c 0,81.333333 0,162.66667 0,244 40.66667,0 81.33333,0 122,0 0,-81.33333 0,-162.666667 0,-244 -40.66667,0 -81.33333,0 -122,0 z"
       style="fill:#afe498;fill-opacity:1;stroke:none;stroke-width:0.153141;stroke-linecap:round;stroke-linejoin:round;stroke-miterlimit:4;stroke-dasharray:none;paint-order:stroke fill markers"
       id="path2520" />
  </g>
</svg>
