<?xml version="1.0" encoding="UTF-8" standalone="no"?>
<svg
   xmlns:dc="http://purl.org/dc/elements/1.1/"
   xmlns:cc="http://creativecommons.org/ns#"
   xmlns:rdf="http://www.w3.org/1999/02/22-rdf-syntax-ns#"
   xmlns:svg="http://www.w3.org/2000/svg"
   xmlns="http://www.w3.org/2000/svg"
   xmlns:sodipodi="http://sodipodi.sourceforge.net/DTD/sodipodi-0.dtd"
   xmlns:inkscape="http://www.inkscape.org/namespaces/inkscape"
   sodipodi:docname="g15.svg"
   inkscape:version="1.0.1 (c497b03c, 2020-09-10)"
   width="640"
   height="640"
   viewBox="0 0 640 640"
   version="1.1"
   id="svg1145">
  <defs
     id="defs1139">
    <inkscape:path-effect
       only_selected="false"
       apply_with_weight="true"
       apply_no_weight="true"
       helper_size="0"
       steps="2"
       weight="33.333333"
       lpeversion="1"
       is_visible="true"
       id="path-effect1011"
       effect="bspline" />
    <inkscape:path-effect
       only_selected="false"
       apply_with_weight="true"
       apply_no_weight="true"
       helper_size="0"
       steps="2"
       weight="33.333333"
       lpeversion="1"
       is_visible="true"
       id="path-effect1004"
       effect="bspline" />
    <inkscape:path-effect
       only_selected="false"
       apply_with_weight="true"
       apply_no_weight="true"
       helper_size="0"
       steps="2"
       weight="33.333333"
       lpeversion="1"
       is_visible="true"
       id="path-effect997"
       effect="bspline" />
    <inkscape:path-effect
       only_selected="false"
       apply_with_weight="true"
       apply_no_weight="true"
       helper_size="0"
       steps="2"
       weight="33.333333"
       lpeversion="1"
       is_visible="true"
       id="path-effect990"
       effect="bspline" />
    <inkscape:path-effect
       only_selected="false"
       apply_with_weight="true"
       apply_no_weight="true"
       helper_size="0"
       steps="2"
       weight="33.333333"
       lpeversion="1"
       is_visible="true"
       id="path-effect983"
       effect="bspline" />
    <inkscape:path-effect
       only_selected="false"
       apply_with_weight="true"
       apply_no_weight="true"
       helper_size="0"
       steps="2"
       weight="33.333333"
       lpeversion="1"
       is_visible="true"
       id="path-effect979"
       effect="bspline" />
    <inkscape:path-effect
       only_selected="false"
       apply_with_weight="true"
       apply_no_weight="true"
       helper_size="0"
       steps="2"
       weight="33.333333"
       lpeversion="1"
       is_visible="true"
       id="path-effect972"
       effect="bspline" />
    <inkscape:path-effect
       only_selected="false"
       apply_with_weight="true"
       apply_no_weight="true"
       helper_size="0"
       steps="2"
       weight="33.333333"
       lpeversion="1"
       is_visible="true"
       id="path-effect965"
       effect="bspline" />
    <inkscape:path-effect
       only_selected="false"
       apply_with_weight="true"
       apply_no_weight="true"
       helper_size="0"
       steps="2"
       weight="33.333333"
       lpeversion="1"
       is_visible="true"
       id="path-effect955"
       effect="bspline" />
    <inkscape:path-effect
       only_selected="false"
       apply_with_weight="true"
       apply_no_weight="true"
       helper_size="0"
       steps="2"
       weight="33.333333"
       lpeversion="1"
       is_visible="true"
       id="path-effect948"
       effect="bspline" />
    <inkscape:path-effect
       only_selected="false"
       apply_with_weight="true"
       apply_no_weight="true"
       helper_size="0"
       steps="2"
       weight="33.333333"
       lpeversion="1"
       is_visible="true"
       id="path-effect941"
       effect="bspline" />
    <inkscape:path-effect
       only_selected="false"
       apply_with_weight="true"
       apply_no_weight="true"
       helper_size="0"
       steps="2"
       weight="33.333333"
       lpeversion="1"
       is_visible="true"
       id="path-effect934"
       effect="bspline" />
    <inkscape:path-effect
       only_selected="false"
       apply_with_weight="true"
       apply_no_weight="true"
       helper_size="0"
       steps="2"
       weight="33.333333"
       lpeversion="1"
       is_visible="true"
       id="path-effect927"
       effect="bspline" />
    <inkscape:path-effect
       only_selected="false"
       apply_with_weight="true"
       apply_no_weight="true"
       helper_size="0"
       steps="2"
       weight="33.333333"
       lpeversion="1"
       is_visible="true"
       id="path-effect920"
       effect="bspline" />
    <inkscape:path-effect
       only_selected="false"
       apply_with_weight="true"
       apply_no_weight="true"
       helper_size="0"
       steps="2"
       weight="33.333333"
       lpeversion="1"
       is_visible="true"
       id="path-effect913"
       effect="bspline" />
    <inkscape:path-effect
       only_selected="false"
       apply_with_weight="true"
       apply_no_weight="true"
       helper_size="0"
       steps="2"
       weight="33.333333"
       lpeversion="1"
       is_visible="true"
       id="path-effect906"
       effect="bspline" />
    <inkscape:path-effect
       only_selected="false"
       apply_with_weight="true"
       apply_no_weight="true"
       helper_size="0"
       steps="2"
       weight="33.333333"
       lpeversion="1"
       is_visible="true"
       id="path-effect870"
       effect="bspline" />
    <inkscape:path-effect
       split_items="true"
       oposite_fuse="false"
       fuse_paths="false"
       discard_orig_path="false"
       mode="free"
       lpeversion="1"
       is_visible="true"
       id="path-effect1249"
       center_point="399.8278,541.44737"
       end_point="640,640"
       start_point="0,0"
       effect="mirror_symmetry" />
  </defs>
  <sodipodi:namedview
     gridtolerance="10"
     inkscape:snap-grids="true"
     inkscape:snap-to-guides="false"
     objecttolerance="10"
     units="px"
     inkscape:window-maximized="0"
     inkscape:window-y="25"
     inkscape:window-x="53"
     inkscape:window-height="1387"
     inkscape:window-width="2507"
     showgrid="false"
     inkscape:document-rotation="0"
     inkscape:current-layer="layer1"
     inkscape:document-units="px"
     inkscape:cy="334.40675"
     inkscape:cx="644.24598"
     inkscape:zoom="1.2052498"
     inkscape:pageshadow="2"
     inkscape:pageopacity="0.82745098"
     borderopacity="1.0"
     bordercolor="#666666"
     pagecolor="#ffffff"
     id="base"
     showguides="false"
     inkscape:pagecheckerboard="false"
     inkscape:showpageshadow="false">
    <inkscape:grid
       originy="0"
       originx="0"
       empspacing="1"
       dotted="false"
       id="grid1726"
       type="xygrid" />
  </sodipodi:namedview>
  <metadata
     id="metadata1142">
    <rdf:RDF>
      <cc:Work
         rdf:about="">
        <dc:format>image/svg+xml</dc:format>
        <dc:type
           rdf:resource="http://purl.org/dc/dcmitype/StillImage" />
        <dc:title />
      </cc:Work>
    </rdf:RDF>
  </metadata>
  <g
     id="layer1"
     inkscape:groupmode="layer"
     inkscape:label="Layer 1">
    <path
       id="rect1046"
       style="opacity:0.7;fill:#98a7e4;fill-opacity:1;stroke:none;stroke-width:0.841391;stroke-linecap:round;stroke-linejoin:round;stroke-miterlimit:4;stroke-dasharray:none;paint-order:stroke fill markers"
       d="m 800,-8.7890623e-7 c 33.33333,0 66.66667,0 100,0 C 900,33.333332 900,66.666666 900,99.999999 c -33.33333,0 -66.66667,0 -100,0 0,-33.333333 0,-66.666667 0,-99.99999987890623 z"
       sodipodi:nodetypes="ccccc" />
    <path
       id="rect1048"
       style="opacity:0.7;fill:#afe498;fill-opacity:1;stroke:none;stroke-width:0.846716;stroke-linecap:round;stroke-linejoin:round;stroke-miterlimit:4;stroke-dasharray:none;paint-order:stroke fill markers"
       d="m 800,131.74977 c 33.33333,0 66.66667,0 100,0 0,33.33333 0,66.66667 0,100 -33.33333,0 -66.66667,0 -100,0 0,-33.33333 0,-66.66667 0,-100 z"
       sodipodi:nodetypes="ccccc" />
    <path
       id="rect1050"
       style="opacity:0.7;fill:#f0857a;fill-opacity:1;stroke:none;stroke-width:0.888781;stroke-linecap:round;stroke-linejoin:round;stroke-miterlimit:4;stroke-dasharray:none;paint-order:stroke fill markers"
       d="m 800,271.3418 c 33.33333,0 66.66667,0 100,0 0,33.33333 0,66.66667 0,100 -33.33333,0 -66.66667,0 -100,0 0,-33.33333 0,-66.66667 0,-100 z"
       sodipodi:nodetypes="ccccc" />
    <path
       id="rect1052"
       style="opacity:0.7;fill:#e498e0;fill-opacity:1;stroke:none;stroke-width:0.875195;stroke-linecap:round;stroke-linejoin:round;stroke-miterlimit:4;stroke-dasharray:none;paint-order:stroke fill markers"
       d="m 800,399.95465 c 33.33333,0 66.66667,0 100,0 0,33.33333 0,66.66667 0,100 -33.33333,0 -66.66667,0 -100,0 0,-33.33333 0,-66.66667 0,-100 z"
       sodipodi:nodetypes="ccccc" />
    <path
       d="M 166 473 C 125 492 41 498 0 491 L 0 640 L 89 640 C 96 623 180 535 166 473 Z"
       style="fill:#98a7e4;fill-opacity:0.701961;stroke:#e498e0;stroke-width:0.0998548;stroke-linecap:round;stroke-linejoin:round;paint-order:stroke fill markers"
       id="rect866"
       sodipodi:nodetypes="ccccc" />
    <path
       d="M 166 473 C 180 525 114 603 89 640 L 287 640 C 285 635 256 552 260 509 C 264 466 286 425 308 392 C 252 429 212 454 166 473 Z"
       style="fill:#ef847b;fill-opacity:0.701961;stroke:#e498e0;stroke-width:0.0998548;stroke-linecap:round;stroke-linejoin:round;paint-order:stroke fill markers"
       id="path992"
       sodipodi:nodetypes="ccczcc" />
    <path
       id="path929"
       style="fill:#afe498;fill-opacity:0.701961;stroke:#e498e0;stroke-width:0.0998548;stroke-linecap:round;stroke-linejoin:round;paint-order:stroke fill markers"
       d="M 46 224 C 33 230 14 238 0 245 L 0 491 C 35 496 71 495 106 490 C 136 485 168 473 196 460 C 174 456 123 443 106 427 C 93 415 89 397 91 380 C 93 346 106 311 93 277 C 85 256 59 233 46 224 Z"
       sodipodi:nodetypes="ccccccccc" />
    <path
       id="path1006"
       style="fill:#e498e0;fill-opacity:0.701961;stroke:#e498e0;stroke-width:0.0998548;stroke-linecap:round;stroke-linejoin:round;paint-order:stroke fill markers"
       d="M 46 224 C 68 240 91 260 96 288 C 106 328 84 368 93 407 C 101 429 123 440 143 447 C 160 453 178 456 196 460 C 207 455 221 447 229 442 C 213 392 185 345 170 299 C 160 273 151 235 156 202 C 122 201 64 214 46 224 Z"
       sodipodi:nodetypes="ccccccccc" />
    <path
       id="path950"
       style="fill:#afe498;fill-opacity:0.701961;stroke:#e498e0;stroke-width:0.0998548;stroke-linecap:round;stroke-linejoin:round;paint-order:stroke fill markers"
       d="M 156 202 C 151 237 160 273 172 306 C 184 337 198 367 212 397 C 218 411 224 428 229 442 C 248 432 291 403 308 392 C 318 372 333 349 345 323 C 357 296 368 267 373 243 C 356 237 248 208 198 204 C 184 202 170 202 156 202 Z"
       sodipodi:nodetypes="cccccsccc" />
    <path
       id="path908"
       style="fill:#98a7e4;fill-opacity:0.701961;stroke:#e498e0;stroke-width:0.0998548;stroke-linecap:round;stroke-linejoin:round;paint-order:stroke fill markers"
       d="M 170 75 C 129 97 87 118 42 133 C 29 137 14 139 0 141 L 0 245 C 14 238 27 230 42 226 C 67 216 92 208 119 205 C 150 200 188 203 219 206 C 220 158 199 116 170 75 Z"
       sodipodi:nodetypes="cccccccc" />
    <path
       id="path985"
       style="fill:#afe498;fill-opacity:0.701961;stroke:#e498e0;stroke-width:0.0998548;stroke-linecap:round;stroke-linejoin:round;paint-order:stroke fill markers"
       d="m 0,0 c 0,47 0,94 0,141 14,-1 27,-4 41,-8 32,-10 64,-25 94,-40 10,-5 25,-13 35,-18 C 151,48 115,9 107,0 71.333333,0 35.666667,0 0,0 Z"
       sodipodi:nodetypes="ccccccc" />
    <path
       id="path936"
       style="fill:#ef847b;fill-opacity:0.701961;stroke:#e498e0;stroke-width:0.0998548;stroke-linecap:round;stroke-linejoin:round;paint-order:stroke fill markers"
       d="M 333 52 C 299 77 271 111 236 135 C 229 141 217 147 210 150 C 216 168 219 188 219 206 C 272 214 322 230 373 243 C 387 188 361 102 333 52 Z"
       sodipodi:nodetypes="cccccc" />
    <path
       id="path1013"
       style="fill:#e498e0;fill-opacity:0.701961;stroke:#e498e0;stroke-width:0.0998548;stroke-linecap:round;stroke-linejoin:round;paint-order:stroke fill markers"
       d="m 107,0 c 36,39 71,80 94,128 3,7 7,14 9,22 39,-18 68,-50 99,-78 7,-7 18,-13 24,-20 C 325,35 316,17 306,0 239.66667,0 173.33333,0 107,0 Z"
       sodipodi:nodetypes="ccccccc" />
    <path
       d="M 420 488 C 393 492 301 506 260 509 C 258 543 273 608 287 640 C 342 640 396 640 451 640 C 422 601 413 516 420 488 Z"
       style="fill:#afe498;stroke:#e498e0;stroke-width:0.0998548;stroke-linecap:round;stroke-linejoin:round;paint-order:stroke fill markers"
       id="path883"
       sodipodi:nodetypes="ccccc" />
    <path
       d="M 420 488 C 411 545 431 615 451 640 L 640 640 L 640 495 C 595 475 507 470 420 488 Z"
       style="fill:#e498e0;fill-opacity:0.701961;stroke:#e498e0;stroke-width:0.0998548;stroke-linecap:round;stroke-linejoin:round;paint-order:stroke fill markers"
       id="path967"
       sodipodi:nodetypes="ccccc" />
    <path
       id="path915"
       style="fill:#e498e0;fill-opacity:0.701961;stroke:#e498e0;stroke-width:0.0998548;stroke-linecap:round;stroke-linejoin:round;paint-order:stroke fill markers"
       d="M 418 189 C 404 196 390 201 377 208 C 376 222 375 236 372 249 C 370 261 351 314 343 328 C 332 349 319 370 308 392 C 331 402 373 414 411 407 C 434 403 461 392 489 373 C 505 362 521 349 535 336 C 524 318 485 278 464 254 C 448 238 423 200 418 189 Z"
       sodipodi:nodetypes="cccccssccc" />
    <path
       id="path999"
       style="fill:#ef847b;fill-opacity:0.701961;stroke:#e498e0;stroke-width:0.0998548;stroke-linecap:round;stroke-linejoin:round;paint-order:stroke fill markers"
       d="M 418 189 C 434 219 456 245 478 271 C 498 292 519 312 535 336 C 553 322 567 305 582 289 C 599 271 640 222 640 222 L 640 185 C 614 177 587 171 560 168 C 522 163 482 166 446 179 C 436 182 427 185 418 189 Z"
       sodipodi:nodetypes="ccccccccc" />
    <path
       d="M 489 373 C 473 385 443 401 411 407 C 379 413 338 404 308 392 C 289 417 262 473 260 509 C 260 509 374 496 388 493 C 402 491 416 488 430 486 C 438 485 445 484 452 483 L 473 480 C 479 479 485 479 491 478 C 489 455 485 396 489 373 Z"
       style="fill:#98a7e4;fill-opacity:0.701961;stroke:#e498e0;stroke-width:0.0998548;stroke-linecap:round;stroke-linejoin:round;paint-order:stroke fill markers"
       id="path943"
       sodipodi:nodetypes="czcsccsccc" />
    <path
       d="M 489 373 C 486 395 488 454 491 478 C 540 473 620 483 640 495 L 640 222 C 602 270 544 335 489 373 Z"
       style="fill:#afe498;fill-opacity:0.701961;stroke:#e498e0;stroke-width:0.0998548;stroke-linecap:round;stroke-linejoin:round;paint-order:stroke fill markers"
       id="path974"
       sodipodi:nodetypes="ccccc" />
    <path
       id="path922"
       style="fill:#afe498;fill-opacity:0.701961;stroke:#e498e0;stroke-width:0.0998548;stroke-linecap:round;stroke-linejoin:round;paint-order:stroke fill markers"
       d="M 481 0 L 306 0 C 334 47 377 136 377 208 C 393 200 410 192 427 185 C 450 177 473 169 498 167 C 491 148 486 129 482 109 C 477 88 475 67 475 45 C 476 30 477 15 481 0 Z"
       sodipodi:nodetypes="cccccccc" />
    <path
       id="path960"
       style="fill:#98a7e4;fill-opacity:0.701961;stroke:#e498e0;stroke-width:0.0998548;stroke-linecap:round;stroke-linejoin:round;paint-order:stroke fill markers"
       d="m 481,0 c -7,25 -7,52 -4,77 2,21 7,42 12,62 3,9 6,19 9,28 20,-1 41,-3 61,1 10,0 64,12 81,17 0,-61.66667 0,-123.333333 0,-185 -53,0 -106,0 -159,0 z"
       sodipodi:nodetypes="cccccccc" />
  </g>
</svg>
