<?xml version="1.0" encoding="UTF-8" standalone="no"?>
<svg
   xmlns:dc="http://purl.org/dc/elements/1.1/"
   xmlns:cc="http://creativecommons.org/ns#"
   xmlns:rdf="http://www.w3.org/1999/02/22-rdf-syntax-ns#"
   xmlns:svg="http://www.w3.org/2000/svg"
   xmlns="http://www.w3.org/2000/svg"
   xmlns:sodipodi="http://sodipodi.sourceforge.net/DTD/sodipodi-0.dtd"
   xmlns:inkscape="http://www.inkscape.org/namespaces/inkscape"
   sodipodi:docname="g16.svg"
   inkscape:version="1.0.1 (c497b03c, 2020-09-10)"
   width="640"
   height="640"
   viewBox="0 0 640 640"
   version="1.1"
   id="svg1145">
  <defs
     id="defs1139">
    <inkscape:path-effect
       effect="bspline"
       id="path-effect1029"
       is_visible="true"
       lpeversion="1"
       weight="33.333333"
       steps="2"
       helper_size="0"
       apply_no_weight="true"
       apply_with_weight="true"
       only_selected="false" />
    <inkscape:path-effect
       effect="bspline"
       id="path-effect1022"
       is_visible="true"
       lpeversion="1"
       weight="33.333333"
       steps="2"
       helper_size="0"
       apply_no_weight="true"
       apply_with_weight="true"
       only_selected="false" />
    <inkscape:path-effect
       effect="bspline"
       id="path-effect1012"
       is_visible="true"
       lpeversion="1"
       weight="33.333333"
       steps="2"
       helper_size="0"
       apply_no_weight="true"
       apply_with_weight="true"
       only_selected="false" />
    <inkscape:path-effect
       effect="bspline"
       id="path-effect1007"
       is_visible="true"
       lpeversion="1"
       weight="33.333333"
       steps="2"
       helper_size="0"
       apply_no_weight="true"
       apply_with_weight="true"
       only_selected="false" />
    <inkscape:path-effect
       effect="bspline"
       id="path-effect992"
       is_visible="true"
       lpeversion="1"
       weight="33.333333"
       steps="2"
       helper_size="0"
       apply_no_weight="true"
       apply_with_weight="true"
       only_selected="false" />
    <inkscape:path-effect
       effect="bspline"
       id="path-effect1039"
       is_visible="true"
       lpeversion="1"
       weight="33.333333"
       steps="2"
       helper_size="0"
       apply_no_weight="true"
       apply_with_weight="true"
       only_selected="false" />
    <inkscape:path-effect
       effect="bspline"
       id="path-effect898"
       is_visible="true"
       lpeversion="1"
       weight="33.333333"
       steps="2"
       helper_size="0"
       apply_no_weight="true"
       apply_with_weight="true"
       only_selected="false" />
    <inkscape:path-effect
       effect="bspline"
       id="path-effect988"
       is_visible="true"
       lpeversion="1"
       weight="33.333333"
       steps="2"
       helper_size="0"
       apply_no_weight="true"
       apply_with_weight="true"
       only_selected="false" />
    <inkscape:path-effect
       effect="powerstroke"
       id="path-effect984"
       is_visible="true"
       lpeversion="1"
       offset_points="5,0.5"
       sort_points="true"
       interpolator_type="CubicBezierJohan"
       interpolator_beta="0.2"
       start_linecap_type="zerowidth"
       linejoin_type="extrp_arc"
       miter_limit="4"
       scale_width="1"
       end_linecap_type="zerowidth" />
    <inkscape:path-effect
       effect="bspline"
       id="path-effect981"
       is_visible="true"
       lpeversion="1"
       weight="33.333333"
       steps="2"
       helper_size="0"
       apply_no_weight="true"
       apply_with_weight="true"
       only_selected="false" />
    <inkscape:path-effect
       effect="powerstroke"
       id="path-effect977"
       is_visible="true"
       lpeversion="1"
       offset_points="10,0.5"
       sort_points="true"
       interpolator_type="CubicBezierJohan"
       interpolator_beta="0.2"
       start_linecap_type="zerowidth"
       linejoin_type="extrp_arc"
       miter_limit="4"
       scale_width="1"
       end_linecap_type="zerowidth" />
    <inkscape:path-effect
       effect="powerstroke"
       id="path-effect973"
       is_visible="true"
       lpeversion="1"
       offset_points="8,0.5"
       sort_points="true"
       interpolator_type="CubicBezierJohan"
       interpolator_beta="0.2"
       start_linecap_type="zerowidth"
       linejoin_type="extrp_arc"
       miter_limit="4"
       scale_width="1"
       end_linecap_type="zerowidth" />
    <inkscape:path-effect
       effect="powerstroke"
       id="path-effect969"
       is_visible="true"
       lpeversion="1"
       offset_points="0,0.5"
       sort_points="true"
       interpolator_type="CubicBezierJohan"
       interpolator_beta="0.2"
       start_linecap_type="zerowidth"
       linejoin_type="extrp_arc"
       miter_limit="4"
       scale_width="1"
       end_linecap_type="zerowidth" />
    <inkscape:path-effect
       only_selected="false"
       apply_with_weight="true"
       apply_no_weight="true"
       helper_size="0"
       steps="2"
       weight="33.333333"
       lpeversion="1"
       is_visible="true"
       id="path-effect1011"
       effect="bspline" />
    <inkscape:path-effect
       only_selected="false"
       apply_with_weight="true"
       apply_no_weight="true"
       helper_size="0"
       steps="2"
       weight="33.333333"
       lpeversion="1"
       is_visible="true"
       id="path-effect1004"
       effect="bspline" />
    <inkscape:path-effect
       only_selected="false"
       apply_with_weight="true"
       apply_no_weight="true"
       helper_size="0"
       steps="2"
       weight="33.333333"
       lpeversion="1"
       is_visible="true"
       id="path-effect997"
       effect="bspline" />
    <inkscape:path-effect
       only_selected="false"
       apply_with_weight="true"
       apply_no_weight="true"
       helper_size="0"
       steps="2"
       weight="33.333333"
       lpeversion="1"
       is_visible="true"
       id="path-effect990"
       effect="bspline" />
    <inkscape:path-effect
       only_selected="false"
       apply_with_weight="true"
       apply_no_weight="true"
       helper_size="0"
       steps="2"
       weight="33.333333"
       lpeversion="1"
       is_visible="true"
       id="path-effect983"
       effect="bspline" />
    <inkscape:path-effect
       only_selected="false"
       apply_with_weight="true"
       apply_no_weight="true"
       helper_size="0"
       steps="2"
       weight="33.333333"
       lpeversion="1"
       is_visible="true"
       id="path-effect979"
       effect="bspline" />
    <inkscape:path-effect
       only_selected="false"
       apply_with_weight="true"
       apply_no_weight="true"
       helper_size="0"
       steps="2"
       weight="33.333333"
       lpeversion="1"
       is_visible="true"
       id="path-effect972"
       effect="bspline" />
    <inkscape:path-effect
       only_selected="false"
       apply_with_weight="true"
       apply_no_weight="true"
       helper_size="0"
       steps="2"
       weight="33.333333"
       lpeversion="1"
       is_visible="true"
       id="path-effect965"
       effect="bspline" />
    <inkscape:path-effect
       only_selected="false"
       apply_with_weight="true"
       apply_no_weight="true"
       helper_size="0"
       steps="2"
       weight="33.333333"
       lpeversion="1"
       is_visible="true"
       id="path-effect955"
       effect="bspline" />
    <inkscape:path-effect
       only_selected="false"
       apply_with_weight="true"
       apply_no_weight="true"
       helper_size="0"
       steps="2"
       weight="33.333333"
       lpeversion="1"
       is_visible="true"
       id="path-effect948"
       effect="bspline" />
    <inkscape:path-effect
       only_selected="false"
       apply_with_weight="true"
       apply_no_weight="true"
       helper_size="0"
       steps="2"
       weight="33.333333"
       lpeversion="1"
       is_visible="true"
       id="path-effect941"
       effect="bspline" />
    <inkscape:path-effect
       only_selected="false"
       apply_with_weight="true"
       apply_no_weight="true"
       helper_size="0"
       steps="2"
       weight="33.333333"
       lpeversion="1"
       is_visible="true"
       id="path-effect934"
       effect="bspline" />
    <inkscape:path-effect
       only_selected="false"
       apply_with_weight="true"
       apply_no_weight="true"
       helper_size="0"
       steps="2"
       weight="33.333333"
       lpeversion="1"
       is_visible="true"
       id="path-effect927"
       effect="bspline" />
    <inkscape:path-effect
       only_selected="false"
       apply_with_weight="true"
       apply_no_weight="true"
       helper_size="0"
       steps="2"
       weight="33.333333"
       lpeversion="1"
       is_visible="true"
       id="path-effect920"
       effect="bspline" />
    <inkscape:path-effect
       only_selected="false"
       apply_with_weight="true"
       apply_no_weight="true"
       helper_size="0"
       steps="2"
       weight="33.333333"
       lpeversion="1"
       is_visible="true"
       id="path-effect913"
       effect="bspline" />
    <inkscape:path-effect
       only_selected="false"
       apply_with_weight="true"
       apply_no_weight="true"
       helper_size="0"
       steps="2"
       weight="33.333333"
       lpeversion="1"
       is_visible="true"
       id="path-effect906"
       effect="bspline" />
    <inkscape:path-effect
       only_selected="false"
       apply_with_weight="true"
       apply_no_weight="true"
       helper_size="0"
       steps="2"
       weight="33.333333"
       lpeversion="1"
       is_visible="true"
       id="path-effect870"
       effect="bspline" />
    <inkscape:path-effect
       split_items="true"
       oposite_fuse="false"
       fuse_paths="false"
       discard_orig_path="false"
       mode="free"
       lpeversion="1"
       is_visible="true"
       id="path-effect1249"
       center_point="399.8278,541.44737"
       end_point="640,640"
       start_point="0,0"
       effect="mirror_symmetry" />
  </defs>
  <sodipodi:namedview
     gridtolerance="10"
     inkscape:snap-grids="true"
     inkscape:snap-to-guides="false"
     objecttolerance="10"
     units="px"
     inkscape:window-maximized="0"
     inkscape:window-y="26"
     inkscape:window-x="53"
     inkscape:window-height="1387"
     inkscape:window-width="2507"
     showgrid="false"
     inkscape:document-rotation="0"
     inkscape:current-layer="layer1"
     inkscape:document-units="px"
     inkscape:cy="358.2542"
     inkscape:cx="436.00382"
     inkscape:zoom="1.5854267"
     inkscape:pageshadow="2"
     inkscape:pageopacity="0.82745098"
     borderopacity="1.0"
     bordercolor="#666666"
     pagecolor="#ffffff"
     id="base"
     showguides="false"
     inkscape:pagecheckerboard="false"
     inkscape:showpageshadow="false">
    <inkscape:grid
       originy="0"
       originx="0"
       empspacing="1"
       dotted="false"
       id="grid1726"
       type="xygrid" />
  </sodipodi:namedview>
  <metadata
     id="metadata1142">
    <rdf:RDF>
      <cc:Work
         rdf:about="">
        <dc:format>image/svg+xml</dc:format>
        <dc:type
           rdf:resource="http://purl.org/dc/dcmitype/StillImage" />
        <dc:title />
      </cc:Work>
    </rdf:RDF>
  </metadata>
  <g
     id="layer1"
     inkscape:groupmode="layer"
     inkscape:label="Layer 1">
    <path
       id="rect1046"
       style="opacity:0.7;fill:#98a7e4;fill-opacity:1;stroke:none;stroke-width:0.841391;stroke-linecap:round;stroke-linejoin:round;stroke-miterlimit:4;stroke-dasharray:none;paint-order:stroke fill markers"
       d="M 800 0 C 833 0 867 0 900 0 C 900 33 900 67 900 100 C 867 100 833 100 800 100 C 800 67 800 33 800 0 Z"
       sodipodi:nodetypes="ccccc" />
    <path
       id="rect1048"
       style="opacity:0.7;fill:#afe498;fill-opacity:1;stroke:none;stroke-width:0.846716;stroke-linecap:round;stroke-linejoin:round;stroke-miterlimit:4;stroke-dasharray:none;paint-order:stroke fill markers"
       d="M 800 132 C 833 132 867 132 900 132 C 900 165 900 198 900 232 C 867 232 833 232 800 232 C 800 198 800 165 800 132 Z"
       sodipodi:nodetypes="ccccc" />
    <path
       id="rect1050"
       style="opacity:0.7;fill:#f0857a;fill-opacity:1;stroke:none;stroke-width:0.888781;stroke-linecap:round;stroke-linejoin:round;stroke-miterlimit:4;stroke-dasharray:none;paint-order:stroke fill markers"
       d="M 800 271 C 833 271 867 271 900 271 C 900 305 900 338 900 371 C 867 371 833 371 800 371 C 800 338 800 305 800 271 Z"
       sodipodi:nodetypes="ccccc" />
    <path
       id="rect1052"
       style="opacity:0.7;fill:#e498e0;fill-opacity:1;stroke:none;stroke-width:0.875195;stroke-linecap:round;stroke-linejoin:round;stroke-miterlimit:4;stroke-dasharray:none;paint-order:stroke fill markers"
       d="M 800 400 C 833 400 867 400 900 400 C 900 433 900 467 900 500 C 867 500 833 500 800 500 C 800 467 800 433 800 400 Z"
       sodipodi:nodetypes="ccccc" />
    <path
       id="path1074"
       style="fill:#afe498;fill-opacity:0.701961;stroke-width:2.88716;stroke-linecap:round;stroke-linejoin:round;paint-order:markers fill stroke"
       d="M 288,0 H 0 v 640 h 356 c 1,-15 -3,-29 -8,-36 -4,0 -8,1 -12,1 -49.48008,2.88233 -99.25075,-7.90222 -144,-29 C 143.59716,553.17967 101.09821,518.20615 72,473 20,394 12,289 52,204 92,114 182,50 280,38 276.70327,25.845756 279,11 288,0 Z"
       sodipodi:nodetypes="ccccccscccc" />
    <path
       id="path1017"
       style="fill:#98a7e4;fill-opacity:0.701961;stroke-width:2.88716;stroke-linecap:round;stroke-linejoin:round;paint-order:markers fill stroke"
       d="m 288,0 c -12.03268,15.813073 -10.48108,25.481074 -8,38 144.84834,-19.979073 268.70327,66.67059 314,179 40,98 17,217 -56,294 -49,53 -118,87 -190,93 7.84576,13.8902 8.51893,23.71244 8,36 94.66667,0 189.33333,0 284,0 0,-213.33333 0,-426.66667 0,-640 C 522.66667,0 405.33333,0 288,0 Z"
       sodipodi:nodetypes="ccccccccc" />
    <path
       id="path994"
       style="fill:#ef847b;fill-opacity:0.701961;stroke-width:2.64567;stroke-linecap:round;stroke-linejoin:round;paint-order:markers fill stroke"
       d="m 122,346 c -31,-6 -63,-10 -94,-4 8.967317,107.10063 71.134735,193.05103 164,234 6,-28 17,-57 26,-84 -52,-31 -89,-86 -96,-146 z"
       sodipodi:nodetypes="ccccc" />
    <path
       id="path1136"
       style="fill:#afe498;fill-opacity:0.701961;stroke-width:2.64567;stroke-linecap:round;stroke-linejoin:round;paint-order:markers fill stroke"
       d="M 122 346 C 128 399 158 449 201 481 C 207 485 212 489 218 492 C 228 461 238 430 238 397 C 238 388 237 378 234 369 C 196 364 159 353 122 346 Z" />
    <path
       id="path1029"
       style="fill:#e498e0;fill-opacity:0.701961;stroke-width:2.64567;stroke-linecap:round;stroke-linejoin:round;paint-order:markers fill stroke"
       d="m 164,195 c -34,42 -50,98 -42,151 37,8 74,18 112,23 -13.51634,-64.26405 -62,-110 -70,-174 z"
       sodipodi:nodetypes="cccc" />
    <path
       id="path1106"
       style="fill:#98a7e4;fill-opacity:0.701961;stroke-width:2.64567;stroke-linecap:round;stroke-linejoin:round;paint-order:markers fill stroke"
       d="M 176 72 C 94 116 36 201 28 294 C 26 310 26 326 28 342 C 59 336 91 340 122 346 C 114 293 130 237 164 195 C 158 153 165 112 176 72 Z" />
    <path
       id="path1013"
       style="fill:#e498e0;fill-opacity:0.701961;stroke-width:2.64567;stroke-linecap:round;stroke-linejoin:round;paint-order:markers fill stroke"
       d="m 218,492 c -10,28 -20,56 -26,84 84,41 187.53727,44.05619 281,-13 9.05637,-37.13508 2,-79 -9,-104 -42,44 -104,66 -164,60 -29,-3 -57,-12 -82,-27 z"
       sodipodi:nodetypes="cccccc" />
    <path
       id="path1116"
       style="fill:#98a7e4;fill-opacity:0.701961;stroke-width:2.64567;stroke-linecap:round;stroke-linejoin:round;paint-order:markers fill stroke"
       d="m 439,406 c -25,24 -54,47 -88,56 -43.57254,9.07712 -91.60263,-17.46015 -116,-33 -4,21 -10,43 -17,63 50,30 114,36 169,17 29,-11 56,-28 77,-50 -8,-18 -17,-35 -25,-53 z"
       sodipodi:nodetypes="ccccccc" />
    <path
       id="path1031"
       style="fill:#ef847b;fill-opacity:0.701961;stroke-width:2.64567;stroke-linecap:round;stroke-linejoin:round;paint-order:markers fill stroke"
       d="m 415,323 c -54.78039,16.96732 -138.9739,28.43005 -191,15 11.08888,23.02351 17.67059,64.84576 11,91 28,17 58,33 91,35 38.45098,1.59346 64,-17 89,-37 8,-7 16,-13 24,-21 -13,-26 -23,-54 -24,-83 z"
       sodipodi:nodetypes="ccccccc" />
    <path
       id="path1041"
       style="fill:#afe498;fill-opacity:0.701961;stroke-width:2.64567;stroke-linecap:round;stroke-linejoin:round;paint-order:markers fill stroke"
       d="m 421,260 c -4,-4 -59.51376,-72.96732 -91,-71 -28.45132,1.79588 -53.87944,21.59692 -78,41 -23.70437,19.06828 -46.20858,37.73946 -62,40 11,22 24,44 34,68 45,9 92,8 137,-2 18,-4 36,-8 54,-13 0,-21 2,-42 6,-63 z"
       sodipodi:nodetypes="ccsccscc" />
    <path
       id="path1024"
       style="fill:#ef847b;fill-opacity:0.701961;stroke-width:2.64567;stroke-linecap:round;stroke-linejoin:round;paint-order:markers fill stroke"
       d="M 320 120 C 260 120 201 148 164 195 C 167 221 178 246 190 270 C 213 264 231 247 250 233 C 271 216 292 197 319 190 C 342 185 362 201 377 216 C 392 230 406 246 421 260 C 427 227 436 195 443 162 C 408 135 364 120 320 120 Z" />
    <path
       id="path1096"
       style="fill:#e498e0;fill-opacity:0.701961;stroke-width:2.64567;stroke-linecap:round;stroke-linejoin:round;paint-order:markers fill stroke"
       d="m 320,35 c -50,0 -100,13 -144,37 -11,40 -19.07712,79.92288 -12,123 38,-48 100,-77 161,-75 42,1 85,16 118,42 9.07712,-30.8902 15,-61 18,-92 C 418,47 369,35 320,35 Z"
       sodipodi:nodetypes="scccccs" />
    <path
       id="path1016"
       style="fill:#afe498;fill-opacity:0.701961;stroke-width:2.64567;stroke-linecap:round;stroke-linejoin:round;paint-order:markers fill stroke"
       d="m 464,459 c 12.94214,26.05935 16.41693,79.04743 9,104 79,-46 134,-132 140,-223 1,-21 0,-41 -3,-62 -31,-7 -64,-8 -96,-5 15,59 1,124 -37,171 -4,6 -9,10 -13,15 z"
       sodipodi:nodetypes="ccccccc" />
    <path
       id="path1126"
       style="fill:#e498e0;fill-opacity:0.701961;stroke-width:2.64567;stroke-linecap:round;stroke-linejoin:round;paint-order:markers fill stroke"
       d="m 464,459 c 38,-39 59,-95 56,-150 -1,-12 -3,-24 -6,-36 -33,3 -65,12 -98,20 -4.29673,39.67059 4,76 21,110 9,18 19,37 27,56 z"
       sodipodi:nodetypes="ccccsc" />
    <path
       id="path941"
       style="fill:#98a7e4;fill-opacity:0.701961;stroke-width:2.64567;stroke-linecap:round;stroke-linejoin:round;paint-order:markers fill stroke"
       d="m 514,273 c -10,-44 -36,-83 -71,-111 -10,43 -23,87 -27,131 31.73854,-7.60522 74,-18 98,-20 z"
       sodipodi:nodetypes="cccc" />
    <path
       id="path1146"
       style="fill:#ef847b;fill-opacity:0.701961;stroke-width:2.64567;stroke-linecap:round;stroke-linejoin:round;paint-order:markers fill stroke"
       d="m 461,70 c -3,31 -10,62 -18,92 35,28 61,67 71,111 30,-4 66,-1 96,5 C 601.94751,191.79438 538.16405,111.17788 461,70 Z"
       sodipodi:nodetypes="ccccc" />
  </g>
</svg>
