<?xml version="1.0" encoding="UTF-8" standalone="no"?>
<svg
   xmlns:dc="http://purl.org/dc/elements/1.1/"
   xmlns:cc="http://creativecommons.org/ns#"
   xmlns:rdf="http://www.w3.org/1999/02/22-rdf-syntax-ns#"
   xmlns:svg="http://www.w3.org/2000/svg"
   xmlns="http://www.w3.org/2000/svg"
   xmlns:sodipodi="http://sodipodi.sourceforge.net/DTD/sodipodi-0.dtd"
   xmlns:inkscape="http://www.inkscape.org/namespaces/inkscape"
   sodipodi:docname="g18.svg"
   inkscape:version="1.0.1 (c497b03c, 2020-09-10)"
   width="640"
   height="640"
   viewBox="0 0 640 640"
   version="1.1"
   id="svg1145">
  <defs
     id="defs1139">
    <inkscape:path-effect
       effect="bspline"
       id="path-effect1029"
       is_visible="true"
       lpeversion="1"
       weight="33.333333"
       steps="2"
       helper_size="0"
       apply_no_weight="true"
       apply_with_weight="true"
       only_selected="false" />
    <inkscape:path-effect
       effect="bspline"
       id="path-effect1022"
       is_visible="true"
       lpeversion="1"
       weight="33.333333"
       steps="2"
       helper_size="0"
       apply_no_weight="true"
       apply_with_weight="true"
       only_selected="false" />
    <inkscape:path-effect
       effect="bspline"
       id="path-effect1012"
       is_visible="true"
       lpeversion="1"
       weight="33.333333"
       steps="2"
       helper_size="0"
       apply_no_weight="true"
       apply_with_weight="true"
       only_selected="false" />
    <inkscape:path-effect
       effect="bspline"
       id="path-effect1007"
       is_visible="true"
       lpeversion="1"
       weight="33.333333"
       steps="2"
       helper_size="0"
       apply_no_weight="true"
       apply_with_weight="true"
       only_selected="false" />
    <inkscape:path-effect
       effect="bspline"
       id="path-effect992"
       is_visible="true"
       lpeversion="1"
       weight="33.333333"
       steps="2"
       helper_size="0"
       apply_no_weight="true"
       apply_with_weight="true"
       only_selected="false" />
    <inkscape:path-effect
       effect="bspline"
       id="path-effect1039"
       is_visible="true"
       lpeversion="1"
       weight="33.333333"
       steps="2"
       helper_size="0"
       apply_no_weight="true"
       apply_with_weight="true"
       only_selected="false" />
    <inkscape:path-effect
       effect="bspline"
       id="path-effect898"
       is_visible="true"
       lpeversion="1"
       weight="33.333333"
       steps="2"
       helper_size="0"
       apply_no_weight="true"
       apply_with_weight="true"
       only_selected="false" />
    <inkscape:path-effect
       effect="bspline"
       id="path-effect988"
       is_visible="true"
       lpeversion="1"
       weight="33.333333"
       steps="2"
       helper_size="0"
       apply_no_weight="true"
       apply_with_weight="true"
       only_selected="false" />
    <inkscape:path-effect
       effect="powerstroke"
       id="path-effect984"
       is_visible="true"
       lpeversion="1"
       offset_points="5,0.5"
       sort_points="true"
       interpolator_type="CubicBezierJohan"
       interpolator_beta="0.2"
       start_linecap_type="zerowidth"
       linejoin_type="extrp_arc"
       miter_limit="4"
       scale_width="1"
       end_linecap_type="zerowidth" />
    <inkscape:path-effect
       effect="bspline"
       id="path-effect981"
       is_visible="true"
       lpeversion="1"
       weight="33.333333"
       steps="2"
       helper_size="0"
       apply_no_weight="true"
       apply_with_weight="true"
       only_selected="false" />
    <inkscape:path-effect
       effect="powerstroke"
       id="path-effect977"
       is_visible="true"
       lpeversion="1"
       offset_points="10,0.5"
       sort_points="true"
       interpolator_type="CubicBezierJohan"
       interpolator_beta="0.2"
       start_linecap_type="zerowidth"
       linejoin_type="extrp_arc"
       miter_limit="4"
       scale_width="1"
       end_linecap_type="zerowidth" />
    <inkscape:path-effect
       effect="powerstroke"
       id="path-effect973"
       is_visible="true"
       lpeversion="1"
       offset_points="8,0.5"
       sort_points="true"
       interpolator_type="CubicBezierJohan"
       interpolator_beta="0.2"
       start_linecap_type="zerowidth"
       linejoin_type="extrp_arc"
       miter_limit="4"
       scale_width="1"
       end_linecap_type="zerowidth" />
    <inkscape:path-effect
       effect="powerstroke"
       id="path-effect969"
       is_visible="true"
       lpeversion="1"
       offset_points="0,0.5"
       sort_points="true"
       interpolator_type="CubicBezierJohan"
       interpolator_beta="0.2"
       start_linecap_type="zerowidth"
       linejoin_type="extrp_arc"
       miter_limit="4"
       scale_width="1"
       end_linecap_type="zerowidth" />
    <inkscape:path-effect
       only_selected="false"
       apply_with_weight="true"
       apply_no_weight="true"
       helper_size="0"
       steps="2"
       weight="33.333333"
       lpeversion="1"
       is_visible="true"
       id="path-effect1011"
       effect="bspline" />
    <inkscape:path-effect
       only_selected="false"
       apply_with_weight="true"
       apply_no_weight="true"
       helper_size="0"
       steps="2"
       weight="33.333333"
       lpeversion="1"
       is_visible="true"
       id="path-effect1004"
       effect="bspline" />
    <inkscape:path-effect
       only_selected="false"
       apply_with_weight="true"
       apply_no_weight="true"
       helper_size="0"
       steps="2"
       weight="33.333333"
       lpeversion="1"
       is_visible="true"
       id="path-effect997"
       effect="bspline" />
    <inkscape:path-effect
       only_selected="false"
       apply_with_weight="true"
       apply_no_weight="true"
       helper_size="0"
       steps="2"
       weight="33.333333"
       lpeversion="1"
       is_visible="true"
       id="path-effect990"
       effect="bspline" />
    <inkscape:path-effect
       only_selected="false"
       apply_with_weight="true"
       apply_no_weight="true"
       helper_size="0"
       steps="2"
       weight="33.333333"
       lpeversion="1"
       is_visible="true"
       id="path-effect983"
       effect="bspline" />
    <inkscape:path-effect
       only_selected="false"
       apply_with_weight="true"
       apply_no_weight="true"
       helper_size="0"
       steps="2"
       weight="33.333333"
       lpeversion="1"
       is_visible="true"
       id="path-effect979"
       effect="bspline" />
    <inkscape:path-effect
       only_selected="false"
       apply_with_weight="true"
       apply_no_weight="true"
       helper_size="0"
       steps="2"
       weight="33.333333"
       lpeversion="1"
       is_visible="true"
       id="path-effect972"
       effect="bspline" />
    <inkscape:path-effect
       only_selected="false"
       apply_with_weight="true"
       apply_no_weight="true"
       helper_size="0"
       steps="2"
       weight="33.333333"
       lpeversion="1"
       is_visible="true"
       id="path-effect965"
       effect="bspline" />
    <inkscape:path-effect
       only_selected="false"
       apply_with_weight="true"
       apply_no_weight="true"
       helper_size="0"
       steps="2"
       weight="33.333333"
       lpeversion="1"
       is_visible="true"
       id="path-effect955"
       effect="bspline" />
    <inkscape:path-effect
       only_selected="false"
       apply_with_weight="true"
       apply_no_weight="true"
       helper_size="0"
       steps="2"
       weight="33.333333"
       lpeversion="1"
       is_visible="true"
       id="path-effect948"
       effect="bspline" />
    <inkscape:path-effect
       only_selected="false"
       apply_with_weight="true"
       apply_no_weight="true"
       helper_size="0"
       steps="2"
       weight="33.333333"
       lpeversion="1"
       is_visible="true"
       id="path-effect941"
       effect="bspline" />
    <inkscape:path-effect
       only_selected="false"
       apply_with_weight="true"
       apply_no_weight="true"
       helper_size="0"
       steps="2"
       weight="33.333333"
       lpeversion="1"
       is_visible="true"
       id="path-effect934"
       effect="bspline" />
    <inkscape:path-effect
       only_selected="false"
       apply_with_weight="true"
       apply_no_weight="true"
       helper_size="0"
       steps="2"
       weight="33.333333"
       lpeversion="1"
       is_visible="true"
       id="path-effect927"
       effect="bspline" />
    <inkscape:path-effect
       only_selected="false"
       apply_with_weight="true"
       apply_no_weight="true"
       helper_size="0"
       steps="2"
       weight="33.333333"
       lpeversion="1"
       is_visible="true"
       id="path-effect920"
       effect="bspline" />
    <inkscape:path-effect
       only_selected="false"
       apply_with_weight="true"
       apply_no_weight="true"
       helper_size="0"
       steps="2"
       weight="33.333333"
       lpeversion="1"
       is_visible="true"
       id="path-effect913"
       effect="bspline" />
    <inkscape:path-effect
       only_selected="false"
       apply_with_weight="true"
       apply_no_weight="true"
       helper_size="0"
       steps="2"
       weight="33.333333"
       lpeversion="1"
       is_visible="true"
       id="path-effect906"
       effect="bspline" />
    <inkscape:path-effect
       only_selected="false"
       apply_with_weight="true"
       apply_no_weight="true"
       helper_size="0"
       steps="2"
       weight="33.333333"
       lpeversion="1"
       is_visible="true"
       id="path-effect870"
       effect="bspline" />
    <inkscape:path-effect
       split_items="true"
       oposite_fuse="false"
       fuse_paths="false"
       discard_orig_path="false"
       mode="free"
       lpeversion="1"
       is_visible="true"
       id="path-effect1249"
       center_point="399.8278,541.44737"
       end_point="640,640"
       start_point="0,0"
       effect="mirror_symmetry" />
  </defs>
  <sodipodi:namedview
     gridtolerance="10"
     inkscape:snap-grids="true"
     inkscape:snap-to-guides="false"
     objecttolerance="10"
     units="px"
     inkscape:window-maximized="0"
     inkscape:window-y="26"
     inkscape:window-x="53"
     inkscape:window-height="1387"
     inkscape:window-width="2507"
     showgrid="false"
     inkscape:document-rotation="0"
     inkscape:current-layer="layer1"
     inkscape:document-units="px"
     inkscape:cy="341.66458"
     inkscape:cx="358.64959"
     inkscape:zoom="1.2491403"
     inkscape:pageshadow="2"
     inkscape:pageopacity="0.82745098"
     borderopacity="1.0"
     bordercolor="#666666"
     pagecolor="#ffffff"
     id="base"
     showguides="false"
     inkscape:pagecheckerboard="false"
     inkscape:showpageshadow="false">
    <inkscape:grid
       originy="0"
       originx="0"
       empspacing="1"
       dotted="false"
       id="grid1726"
       type="xygrid" />
  </sodipodi:namedview>
  <metadata
     id="metadata1142">
    <rdf:RDF>
      <cc:Work
         rdf:about="">
        <dc:format>image/svg+xml</dc:format>
        <dc:type
           rdf:resource="http://purl.org/dc/dcmitype/StillImage" />
        <dc:title></dc:title>
      </cc:Work>
    </rdf:RDF>
  </metadata>
  <g
     id="layer1"
     inkscape:groupmode="layer"
     inkscape:label="Layer 1">
    <path
       id="rect1046"
       style="opacity:0.7;fill:#98a7e4;fill-opacity:1;stroke:none;stroke-width:0.841391;stroke-linecap:round;stroke-linejoin:round;stroke-miterlimit:4;stroke-dasharray:none;paint-order:stroke fill markers"
       d="M 800 0 C 833 0 867 0 900 0 C 900 33 900 67 900 100 C 867 100 833 100 800 100 C 800 67 800 33 800 0 Z"
       sodipodi:nodetypes="ccccc" />
    <path
       id="rect1048"
       style="opacity:0.7;fill:#afe498;fill-opacity:1;stroke:none;stroke-width:0.846716;stroke-linecap:round;stroke-linejoin:round;stroke-miterlimit:4;stroke-dasharray:none;paint-order:stroke fill markers"
       d="M 800 132 C 833 132 867 132 900 132 C 900 165 900 198 900 232 C 867 232 833 232 800 232 C 800 198 800 165 800 132 Z"
       sodipodi:nodetypes="ccccc" />
    <path
       id="rect1050"
       style="opacity:0.7;fill:#f0857a;fill-opacity:1;stroke:none;stroke-width:0.888781;stroke-linecap:round;stroke-linejoin:round;stroke-miterlimit:4;stroke-dasharray:none;paint-order:stroke fill markers"
       d="M 800 271 C 833 271 867 271 900 271 C 900 305 900 338 900 371 C 867 371 833 371 800 371 C 800 338 800 305 800 271 Z"
       sodipodi:nodetypes="ccccc" />
    <path
       id="rect1052"
       style="opacity:0.7;fill:#e498e0;fill-opacity:1;stroke:none;stroke-width:0.875195;stroke-linecap:round;stroke-linejoin:round;stroke-miterlimit:4;stroke-dasharray:none;paint-order:stroke fill markers"
       d="M 800 400 C 833 400 867 400 900 400 C 900 433 900 467 900 500 C 867 500 833 500 800 500 C 800 467 800 433 800 400 Z"
       sodipodi:nodetypes="ccccc" />
    <path
       id="rect1128"
       style="fill:#afe498;fill-opacity:0.701961;stroke-width:2.78987;stroke-linecap:round;stroke-linejoin:round;paint-order:markers fill stroke"
       d="M 320 320 C 320 353 320 387 320 420 C 344 420 367 411 385 396 C 403 380 415 358 419 335 C 422 313 418 289 407 270 C 378 287 349 303 320 320 Z"
       sodipodi:nodetypes="cccccc" />
    <path
       id="path3336"
       style="fill:#98a7e4;fill-opacity:0.701961;stroke-width:2.78987;stroke-linecap:round;stroke-linejoin:round;paint-order:markers fill stroke"
       d="M 233 270 C 222 290 217 315 222 338 C 226 361 239 383 257 398 C 275 412 297 420 320 420 C 320 387 320 353 320 320 C 291 303 262 287 233 270 Z"
       sodipodi:nodetypes="cccccc" />
    <path
       id="path3334"
       style="fill:#afe498;fill-opacity:0.701961;stroke-width:2.78987;stroke-linecap:round;stroke-linejoin:round;paint-order:markers fill stroke"
       d="M 147 220 C 176 237 205 253 233 270 C 242 256 253 244 267 235 C 268 234 269 234 270 233 C 252 205 235 177 217 149 C 194 162 174 181 158 202 C 154 208 150 214 147 220 Z" />
    <path
       id="path3332"
       style="fill:#e498e0;fill-opacity:0.701961;stroke-width:2.78987;stroke-linecap:round;stroke-linejoin:round;paint-order:markers fill stroke"
       d="M 120 320 C 153 320 187 320 220 320 C 220 303 225 285 233 270 C 205 253 176 237 147 220 C 129 250 120 285 120 320 Z" />
    <path
       id="path3330"
       style="fill:#afe498;fill-opacity:0.701961;stroke-width:2.78987;stroke-linecap:round;stroke-linejoin:round;paint-order:markers fill stroke"
       d="M 147 420 C 176 403 205 387 233 370 C 225 355 220 337 220 320 C 187 320 153 320 120 320 C 120 355 129 390 147 420 Z" />
    <path
       id="path3328"
       style="fill:#ef847b;fill-opacity:0.701961;stroke-width:2.78987;stroke-linecap:round;stroke-linejoin:round;paint-order:markers fill stroke"
       d="M 179 461 C 157 440 140 413 131 384 C 121 356 118 324 122 294 C 123 285 125 277 127 268 C 95 260 62 251 30 242 C 19 283 17 326 24 368 C 30 409 46 448 68 483 C 80 501 93 517 108 532 C 131 509 155 485 179 461 Z" />
    <path
       id="path3326"
       style="fill:#ef847b;fill-opacity:0.701961;stroke-width:2.78987;stroke-linecap:round;stroke-linejoin:round;paint-order:markers fill stroke"
       d="M 220 493 C 237 464 253 435 270 407 C 255 398 242 385 233 370 C 205 387 176 403 147 420 C 164 450 190 476 220 493 Z" />
    <path
       id="path3324"
       style="fill:#afe498;fill-opacity:0.701961;stroke-width:2.78987;stroke-linecap:round;stroke-linejoin:round;paint-order:markers fill stroke"
       d="M 320 520 C 320 487 320 453 320 420 C 304 420 288 416 274 409 C 273 408 271 407 270 407 C 253 435 237 464 220 493 C 243 506 268 515 294 518 C 303 519 311 520 320 520 Z" />
    <path
       id="path3322"
       style="fill:#e498e0;fill-opacity:0.701961;stroke-width:2.78987;stroke-linecap:round;stroke-linejoin:round;paint-order:markers fill stroke"
       d="M 372 513 C 342 521 311 522 281 516 C 251 510 223 497 198 479 C 191 473 185 468 179 461 C 155 485 131 509 108 532 C 138 562 174 585 213 600 C 252 615 294 622 336 620 C 357 618 377 615 398 610 C 389 578 380 545 372 513 Z" />
    <path
       id="path3320"
       style="fill:#e498e0;fill-opacity:0.701961;stroke-width:2.78987;stroke-linecap:round;stroke-linejoin:round;paint-order:markers fill stroke"
       d="M 420 493 C 403 464 387 435 370 407 C 356 415 340 419 324 420 C 323 420 321 420 320 420 C 320 453 320 487 320 520 C 346 520 372 515 396 505 C 404 502 412 498 420 493 Z" />
    <path
       id="path3318"
       style="fill:#98a7e4;fill-opacity:0.701961;stroke-width:2.78987;stroke-linecap:round;stroke-linejoin:round;paint-order:markers fill stroke"
       d="M 493 420 C 464 403 435 387 407 370 C 398 384 387 396 373 405 C 372 406 371 406 370 407 C 387 435 403 464 420 493 C 444 480 465 461 481 439 C 485 433 489 427 493 420 Z" />
    <path
       id="path3316"
       style="fill:#ef847b;fill-opacity:0.701961;stroke-width:2.78987;stroke-linecap:round;stroke-linejoin:round;paint-order:markers fill stroke"
       d="M 513 372 C 505 402 490 430 470 453 C 449 476 423 495 393 506 C 386 509 379 511 372 513 C 380 545 389 578 398 610 C 437 599 475 580 507 555 C 539 529 566 497 585 460 C 596 440 604 419 610 398 C 578 389 545 380 513 372 Z" />
    <path
       id="path3314"
       style="fill:#ef847b;fill-opacity:0.701961;stroke-width:2.78987;stroke-linecap:round;stroke-linejoin:round;paint-order:markers fill stroke"
       d="M 520 320 C 487 320 453 320 420 320 C 420 336 416 352 409 366 C 408 367 407 369 407 370 C 435 387 464 403 493 420 C 506 397 515 372 518 346 C 519 337 520 329 520 320 Z" />
    <path
       id="path3312"
       style="fill:#98a7e4;fill-opacity:0.701961;stroke-width:2.78987;stroke-linecap:round;stroke-linejoin:round;paint-order:markers fill stroke"
       d="M 493 220 C 464 237 435 253 407 270 C 415 284 419 300 420 316 C 420 317 420 319 420 320 C 453 320 487 320 520 320 C 520 294 515 268 505 244 C 502 236 498 228 493 220 Z" />
    <path
       id="path3310"
       style="fill:#e498e0;fill-opacity:0.701961;stroke-width:2.78987;stroke-linecap:round;stroke-linejoin:round;paint-order:markers fill stroke"
       d="M 461 179 C 483 200 500 227 509 256 C 519 284 522 316 518 346 C 517 355 515 363 513 372 C 545 380 578 389 610 398 C 621 357 623 314 616 272 C 610 231 594 192 572 157 C 560 139 547 123 532 108 C 509 131 485 155 461 179 Z" />
    <path
       id="path3308"
       style="fill:#afe498;fill-opacity:0.701961;stroke-width:2.78987;stroke-linecap:round;stroke-linejoin:round;paint-order:markers fill stroke"
       d="M 370 233 C 384 242 396 253 405 267 C 406 268 406 269 407 270 C 435 253 464 237 493 220 C 480 196 461 175 439 159 C 433 155 427 151 420 147 C 403 176 387 205 370 233 Z" />
    <path
       id="path3306"
       style="fill:#e498e0;fill-opacity:0.701961;stroke-width:2.78987;stroke-linecap:round;stroke-linejoin:round;paint-order:markers fill stroke"
       d="M 320 220 C 296 220 271 229 253 245 C 245 253 239 261 233 270 C 262 287 291 303 320 320 C 349 303 378 287 407 270 C 395 249 374 233 351 225 C 341 222 331 220 320 220 Z"
       sodipodi:nodetypes="ccccccc" />
    <path
       id="path3304"
       style="fill:#ef847b;fill-opacity:0.701961;stroke-width:2.78987;stroke-linecap:round;stroke-linejoin:round;paint-order:markers fill stroke"
       d="M 320 120 C 294 120 268 125 244 135 C 235 139 226 143 217 149 C 235 177 252 205 270 233 C 284 225 300 221 316 220 C 317 220 319 220 320 220 C 320 187 320 153 320 120 Z" />
    <path
       id="path3302"
       style="fill:#98a7e4;fill-opacity:0.701961;stroke-width:2.78987;stroke-linecap:round;stroke-linejoin:round;paint-order:markers fill stroke"
       d="M 320 120 C 320 153 320 187 320 220 C 336 220 352 224 366 231 C 367 232 369 233 370 233 C 387 205 403 176 420 147 C 397 134 372 125 346 122 C 337 121 329 120 320 120 Z" />
    <path
       id="path3300"
       style="fill:#e498e0;fill-opacity:0.701961;stroke-width:2.78987;stroke-linecap:round;stroke-linejoin:round;paint-order:markers fill stroke"
       d="M 242 30 C 203 41 165 60 133 85 C 101 111 74 143 55 180 C 44 200 36 221 30 242 C 62 251 95 260 127 268 C 135 238 150 210 170 187 C 191 164 217 145 247 134 C 254 131 261 129 268 127 C 260 95 251 62 242 30 Z" />
    <path
       id="path3298"
       style="fill:#ef847b;fill-opacity:0.701961;stroke-width:2.78987;stroke-linecap:round;stroke-linejoin:round;paint-order:markers fill stroke"
       d="M 242 30 C 251 62 260 95 268 127 C 298 119 329 118 359 124 C 389 130 417 143 442 161 C 449 167 455 172 461 179 C 485 155 509 131 532 108 C 502 78 466 55 427 40 C 388 25 346 18 304 20 C 283 22 263 25 242 30 Z" />
    <path
       id="path3296"
       style="fill:#98a7e4;fill-opacity:0.701961;stroke-width:2.78987;stroke-linecap:round;stroke-linejoin:round;paint-order:markers fill stroke"
       d="M 640 315 C 633 316 627 316 620 316 C 621 366 609 416 585 460 C 562 504 528 542 487 569 C 446 597 399 614 350 619 C 300 624 250 616 204 597 C 158 577 117 547 86 508 C 55 469 33 422 25 373 C 22 357 20 341 20 324 C 13 325 7 325 0 325 C 0 430 0 535 0 640 C 213 640 427 640 640 640 C 640 532 640 424 640 315 Z"
       sodipodi:nodetypes="ccccccccccccc" />
    <path
       id="path3347"
       style="fill:#afe498;fill-opacity:0.701961;stroke-width:2.78987;stroke-linecap:round;stroke-linejoin:round;paint-order:markers fill stroke"
       d="M 0 0 C 0 108 0 216 0 325 C 7 325 13 325 20 324 C 19 274 31 224 55 180 C 78 136 112 98 153 71 C 194 43 241 26 290 21 C 340 16 390 24 436 43 C 482 63 523 93 554 132 C 585 171 607 218 615 267 C 618 283 620 299 620 316 C 627 316 633 316 640 315 C 640 210 640 105 640 0 C 427 0 213 0 0 0 Z"
       sodipodi:nodetypes="ccccccccccccc" />
  </g>
</svg>
