<?xml version="1.0" encoding="UTF-8" standalone="no"?>
<svg
   xmlns:dc="http://purl.org/dc/elements/1.1/"
   xmlns:cc="http://creativecommons.org/ns#"
   xmlns:rdf="http://www.w3.org/1999/02/22-rdf-syntax-ns#"
   xmlns:svg="http://www.w3.org/2000/svg"
   xmlns="http://www.w3.org/2000/svg"
   xmlns:sodipodi="http://sodipodi.sourceforge.net/DTD/sodipodi-0.dtd"
   xmlns:inkscape="http://www.inkscape.org/namespaces/inkscape"
   sodipodi:docname="g20.svg"
   inkscape:version="1.0.1 (c497b03c, 2020-09-10)"
   width="640"
   height="640"
   viewBox="0 0 640 640"
   version="1.1"
   id="svg1145">
  <defs
     id="defs1139">
    <inkscape:path-effect
       effect="spiro"
       id="path-effect1067"
       is_visible="true"
       lpeversion="1" />
    <inkscape:path-effect
       effect="spiro"
       id="path-effect1055"
       is_visible="true"
       lpeversion="1" />
    <inkscape:path-effect
       effect="spiro"
       id="path-effect1041"
       is_visible="true"
       lpeversion="1" />
    <inkscape:path-effect
       effect="spiro"
       id="path-effect1019"
       is_visible="true"
       lpeversion="1" />
    <inkscape:path-effect
       effect="spiro"
       id="path-effect1005"
       is_visible="true"
       lpeversion="1" />
    <inkscape:path-effect
       effect="spiro"
       id="path-effect982"
       is_visible="true"
       lpeversion="1" />
    <inkscape:path-effect
       effect="spiro"
       id="path-effect959"
       is_visible="true"
       lpeversion="1" />
    <inkscape:path-effect
       effect="spiro"
       id="path-effect947"
       is_visible="true"
       lpeversion="1" />
    <inkscape:path-effect
       effect="spiro"
       id="path-effect935"
       is_visible="true"
       lpeversion="1" />
    <inkscape:path-effect
       effect="spiro"
       id="path-effect912"
       is_visible="true"
       lpeversion="1" />
    <inkscape:path-effect
       effect="spiro"
       id="path-effect905"
       is_visible="true"
       lpeversion="1" />
    <inkscape:path-effect
       effect="spiro"
       id="path-effect896"
       is_visible="true"
       lpeversion="1" />
    <inkscape:path-effect
       effect="spiro"
       id="path-effect889"
       is_visible="true"
       lpeversion="1" />
    <inkscape:path-effect
       effect="spiro"
       id="path-effect5566"
       is_visible="true"
       lpeversion="1" />
    <inkscape:path-effect
       effect="spiro"
       id="path-effect5543"
       is_visible="true"
       lpeversion="1" />
    <inkscape:path-effect
       effect="spiro"
       id="path-effect5539"
       is_visible="true"
       lpeversion="1" />
    <inkscape:path-effect
       effect="spiro"
       id="path-effect5535"
       is_visible="true"
       lpeversion="1" />
    <inkscape:path-effect
       effect="spiro"
       id="path-effect5531"
       is_visible="true"
       lpeversion="1" />
    <inkscape:path-effect
       effect="bspline"
       id="path-effect5527"
       is_visible="true"
       lpeversion="1"
       weight="33.333333"
       steps="2"
       helper_size="0"
       apply_no_weight="true"
       apply_with_weight="true"
       only_selected="false" />
    <inkscape:path-effect
       effect="bspline"
       id="path-effect1029"
       is_visible="true"
       lpeversion="1"
       weight="33.333333"
       steps="2"
       helper_size="0"
       apply_no_weight="true"
       apply_with_weight="true"
       only_selected="false" />
    <inkscape:path-effect
       effect="bspline"
       id="path-effect1022"
       is_visible="true"
       lpeversion="1"
       weight="33.333333"
       steps="2"
       helper_size="0"
       apply_no_weight="true"
       apply_with_weight="true"
       only_selected="false" />
    <inkscape:path-effect
       effect="bspline"
       id="path-effect1012"
       is_visible="true"
       lpeversion="1"
       weight="33.333333"
       steps="2"
       helper_size="0"
       apply_no_weight="true"
       apply_with_weight="true"
       only_selected="false" />
    <inkscape:path-effect
       effect="bspline"
       id="path-effect1007"
       is_visible="true"
       lpeversion="1"
       weight="33.333333"
       steps="2"
       helper_size="0"
       apply_no_weight="true"
       apply_with_weight="true"
       only_selected="false" />
    <inkscape:path-effect
       effect="bspline"
       id="path-effect992"
       is_visible="true"
       lpeversion="1"
       weight="33.333333"
       steps="2"
       helper_size="0"
       apply_no_weight="true"
       apply_with_weight="true"
       only_selected="false" />
    <inkscape:path-effect
       effect="bspline"
       id="path-effect1039"
       is_visible="true"
       lpeversion="1"
       weight="33.333333"
       steps="2"
       helper_size="0"
       apply_no_weight="true"
       apply_with_weight="true"
       only_selected="false" />
    <inkscape:path-effect
       effect="bspline"
       id="path-effect898"
       is_visible="true"
       lpeversion="1"
       weight="33.333333"
       steps="2"
       helper_size="0"
       apply_no_weight="true"
       apply_with_weight="true"
       only_selected="false" />
    <inkscape:path-effect
       effect="bspline"
       id="path-effect988"
       is_visible="true"
       lpeversion="1"
       weight="33.333333"
       steps="2"
       helper_size="0"
       apply_no_weight="true"
       apply_with_weight="true"
       only_selected="false" />
    <inkscape:path-effect
       effect="powerstroke"
       id="path-effect984"
       is_visible="true"
       lpeversion="1"
       offset_points="5,0.5"
       sort_points="true"
       interpolator_type="CubicBezierJohan"
       interpolator_beta="0.2"
       start_linecap_type="zerowidth"
       linejoin_type="extrp_arc"
       miter_limit="4"
       scale_width="1"
       end_linecap_type="zerowidth" />
    <inkscape:path-effect
       effect="bspline"
       id="path-effect981"
       is_visible="true"
       lpeversion="1"
       weight="33.333333"
       steps="2"
       helper_size="0"
       apply_no_weight="true"
       apply_with_weight="true"
       only_selected="false" />
    <inkscape:path-effect
       effect="powerstroke"
       id="path-effect977"
       is_visible="true"
       lpeversion="1"
       offset_points="10,0.5"
       sort_points="true"
       interpolator_type="CubicBezierJohan"
       interpolator_beta="0.2"
       start_linecap_type="zerowidth"
       linejoin_type="extrp_arc"
       miter_limit="4"
       scale_width="1"
       end_linecap_type="zerowidth" />
    <inkscape:path-effect
       effect="powerstroke"
       id="path-effect973"
       is_visible="true"
       lpeversion="1"
       offset_points="8,0.5"
       sort_points="true"
       interpolator_type="CubicBezierJohan"
       interpolator_beta="0.2"
       start_linecap_type="zerowidth"
       linejoin_type="extrp_arc"
       miter_limit="4"
       scale_width="1"
       end_linecap_type="zerowidth" />
    <inkscape:path-effect
       effect="powerstroke"
       id="path-effect969"
       is_visible="true"
       lpeversion="1"
       offset_points="0,0.5"
       sort_points="true"
       interpolator_type="CubicBezierJohan"
       interpolator_beta="0.2"
       start_linecap_type="zerowidth"
       linejoin_type="extrp_arc"
       miter_limit="4"
       scale_width="1"
       end_linecap_type="zerowidth" />
    <inkscape:path-effect
       only_selected="false"
       apply_with_weight="true"
       apply_no_weight="true"
       helper_size="0"
       steps="2"
       weight="33.333333"
       lpeversion="1"
       is_visible="true"
       id="path-effect1011"
       effect="bspline" />
    <inkscape:path-effect
       only_selected="false"
       apply_with_weight="true"
       apply_no_weight="true"
       helper_size="0"
       steps="2"
       weight="33.333333"
       lpeversion="1"
       is_visible="true"
       id="path-effect1004"
       effect="bspline" />
    <inkscape:path-effect
       only_selected="false"
       apply_with_weight="true"
       apply_no_weight="true"
       helper_size="0"
       steps="2"
       weight="33.333333"
       lpeversion="1"
       is_visible="true"
       id="path-effect997"
       effect="bspline" />
    <inkscape:path-effect
       only_selected="false"
       apply_with_weight="true"
       apply_no_weight="true"
       helper_size="0"
       steps="2"
       weight="33.333333"
       lpeversion="1"
       is_visible="true"
       id="path-effect990"
       effect="bspline" />
    <inkscape:path-effect
       only_selected="false"
       apply_with_weight="true"
       apply_no_weight="true"
       helper_size="0"
       steps="2"
       weight="33.333333"
       lpeversion="1"
       is_visible="true"
       id="path-effect983"
       effect="bspline" />
    <inkscape:path-effect
       only_selected="false"
       apply_with_weight="true"
       apply_no_weight="true"
       helper_size="0"
       steps="2"
       weight="33.333333"
       lpeversion="1"
       is_visible="true"
       id="path-effect979"
       effect="bspline" />
    <inkscape:path-effect
       only_selected="false"
       apply_with_weight="true"
       apply_no_weight="true"
       helper_size="0"
       steps="2"
       weight="33.333333"
       lpeversion="1"
       is_visible="true"
       id="path-effect972"
       effect="bspline" />
    <inkscape:path-effect
       only_selected="false"
       apply_with_weight="true"
       apply_no_weight="true"
       helper_size="0"
       steps="2"
       weight="33.333333"
       lpeversion="1"
       is_visible="true"
       id="path-effect965"
       effect="bspline" />
    <inkscape:path-effect
       only_selected="false"
       apply_with_weight="true"
       apply_no_weight="true"
       helper_size="0"
       steps="2"
       weight="33.333333"
       lpeversion="1"
       is_visible="true"
       id="path-effect955"
       effect="bspline" />
    <inkscape:path-effect
       only_selected="false"
       apply_with_weight="true"
       apply_no_weight="true"
       helper_size="0"
       steps="2"
       weight="33.333333"
       lpeversion="1"
       is_visible="true"
       id="path-effect948"
       effect="bspline" />
    <inkscape:path-effect
       only_selected="false"
       apply_with_weight="true"
       apply_no_weight="true"
       helper_size="0"
       steps="2"
       weight="33.333333"
       lpeversion="1"
       is_visible="true"
       id="path-effect941"
       effect="bspline" />
    <inkscape:path-effect
       only_selected="false"
       apply_with_weight="true"
       apply_no_weight="true"
       helper_size="0"
       steps="2"
       weight="33.333333"
       lpeversion="1"
       is_visible="true"
       id="path-effect934"
       effect="bspline" />
    <inkscape:path-effect
       only_selected="false"
       apply_with_weight="true"
       apply_no_weight="true"
       helper_size="0"
       steps="2"
       weight="33.333333"
       lpeversion="1"
       is_visible="true"
       id="path-effect927"
       effect="bspline" />
    <inkscape:path-effect
       only_selected="false"
       apply_with_weight="true"
       apply_no_weight="true"
       helper_size="0"
       steps="2"
       weight="33.333333"
       lpeversion="1"
       is_visible="true"
       id="path-effect920"
       effect="bspline" />
    <inkscape:path-effect
       only_selected="false"
       apply_with_weight="true"
       apply_no_weight="true"
       helper_size="0"
       steps="2"
       weight="33.333333"
       lpeversion="1"
       is_visible="true"
       id="path-effect913"
       effect="bspline" />
    <inkscape:path-effect
       only_selected="false"
       apply_with_weight="true"
       apply_no_weight="true"
       helper_size="0"
       steps="2"
       weight="33.333333"
       lpeversion="1"
       is_visible="true"
       id="path-effect906"
       effect="bspline" />
    <inkscape:path-effect
       only_selected="false"
       apply_with_weight="true"
       apply_no_weight="true"
       helper_size="0"
       steps="2"
       weight="33.333333"
       lpeversion="1"
       is_visible="true"
       id="path-effect870"
       effect="bspline" />
    <inkscape:path-effect
       split_items="true"
       oposite_fuse="false"
       fuse_paths="false"
       discard_orig_path="false"
       mode="free"
       lpeversion="1"
       is_visible="true"
       id="path-effect1249"
       center_point="399.8278,541.44737"
       end_point="640,640"
       start_point="0,0"
       effect="mirror_symmetry" />
  </defs>
  <sodipodi:namedview
     gridtolerance="10"
     inkscape:snap-grids="true"
     inkscape:snap-to-guides="false"
     objecttolerance="10"
     units="px"
     inkscape:window-maximized="0"
     inkscape:window-y="25"
     inkscape:window-x="53"
     inkscape:window-height="1387"
     inkscape:window-width="2507"
     showgrid="false"
     inkscape:document-rotation="0"
     inkscape:current-layer="layer1"
     inkscape:document-units="px"
     inkscape:cy="417.79478"
     inkscape:cx="467.83077"
     inkscape:zoom="1.0154433"
     inkscape:pageshadow="2"
     inkscape:pageopacity="0.82745098"
     borderopacity="1.0"
     bordercolor="#666666"
     pagecolor="#ffffff"
     id="base"
     showguides="true"
     inkscape:pagecheckerboard="false"
     inkscape:showpageshadow="false">
    <inkscape:grid
       originy="0"
       originx="0"
       empspacing="1"
       dotted="false"
       id="grid1726"
       type="xygrid" />
  </sodipodi:namedview>
  <metadata
     id="metadata1142">
    <rdf:RDF>
      <cc:Work
         rdf:about="">
        <dc:format>image/svg+xml</dc:format>
        <dc:type
           rdf:resource="http://purl.org/dc/dcmitype/StillImage" />
        <dc:title />
      </cc:Work>
    </rdf:RDF>
  </metadata>
  <g
     id="layer1"
     inkscape:groupmode="layer"
     inkscape:label="Layer 1">
    <path
       id="rect1046"
       style="opacity:0.7;fill:#98a7e4;fill-opacity:1;stroke:none;stroke-width:0.841391;stroke-linecap:round;stroke-linejoin:round;stroke-miterlimit:4;stroke-dasharray:none;paint-order:stroke fill markers"
       d="M 800 0 C 833 0 867 0 900 0 C 900 33 900 67 900 100 C 867 100 833 100 800 100 C 800 67 800 33 800 0 Z"
       sodipodi:nodetypes="ccccc" />
    <path
       id="rect1048"
       style="opacity:0.7;fill:#afe498;fill-opacity:1;stroke:none;stroke-width:0.846716;stroke-linecap:round;stroke-linejoin:round;stroke-miterlimit:4;stroke-dasharray:none;paint-order:stroke fill markers"
       d="M 800 132 C 833 132 867 132 900 132 C 900 165 900 198 900 232 C 867 232 833 232 800 232 C 800 198 800 165 800 132 Z"
       sodipodi:nodetypes="ccccc" />
    <path
       id="rect1050"
       style="opacity:0.7;fill:#f0857a;fill-opacity:1;stroke:none;stroke-width:0.888781;stroke-linecap:round;stroke-linejoin:round;stroke-miterlimit:4;stroke-dasharray:none;paint-order:stroke fill markers"
       d="M 800 271 C 833 271 867 271 900 271 C 900 305 900 338 900 371 C 867 371 833 371 800 371 C 800 338 800 305 800 271 Z"
       sodipodi:nodetypes="ccccc" />
    <path
       id="rect1052"
       style="opacity:0.7;fill:#e498e0;fill-opacity:1;stroke:none;stroke-width:0.875195;stroke-linecap:round;stroke-linejoin:round;stroke-miterlimit:4;stroke-dasharray:none;paint-order:stroke fill markers"
       d="M 800 400 C 833 400 867 400 900 400 C 900 433 900 467 900 500 C 867 500 833 500 800 500 C 800 467 800 433 800 400 Z"
       sodipodi:nodetypes="ccccc" />
    <ellipse
       style="font-variation-settings:normal;opacity:1;vector-effect:none;fill:#afe498;fill-opacity:0.701961;stroke-width:0;stroke-linecap:round;stroke-linejoin:round;stroke-miterlimit:4;stroke-dasharray:none;stroke-dashoffset:0;stroke-opacity:1;paint-order:markers fill stroke;stop-color:#000000;stop-opacity:1"
       id="path5244"
       cx="3.5020065"
       cy="239.16922"
       rx="175"
       ry="0"
       transform="scale(-1,1)" />
    <path
       id="rect5523"
       style="font-variation-settings:normal;opacity:1;vector-effect:none;fill:#ef847b;fill-opacity:0.701961;stroke-width:0.246372;stroke-linecap:round;stroke-linejoin:round;stroke-miterlimit:4;stroke-dasharray:none;stroke-dashoffset:0;stroke-opacity:1;paint-order:markers fill stroke;stop-color:#000000;stop-opacity:1"
       d="m 317,540 c 5,-1 10,-2 14,-3 22,-6 42,-20 54,-39 14,-21 20,-48 15,-73 -5,-25 -13.30281,-35.69719 -31,-54 -14.6295,-14.18444 -39.73454,-23.92203 -58,-23 -13.07261,35.69102 -37.48624,69.35152 -63,89 8.45404,51.20911 33.45945,81.02641 69,103 z"
       sodipodi:nodetypes="cccscccc" />
    <path
       id="path907"
       style="font-variation-settings:normal;opacity:1;vector-effect:none;fill:#98a7e4;fill-opacity:0.701961;stroke-width:0.246372;stroke-linecap:round;stroke-linejoin:round;stroke-miterlimit:4;stroke-dasharray:none;stroke-dashoffset:0;stroke-opacity:1;paint-order:markers fill stroke;stop-color:#000000;stop-opacity:1"
       d="m 509,330 c -5.78345,26.59367 -19.91203,47.46139 -35,61 -24.70861,17.73487 -45.12358,28.61469 -76,28 11.34696,34.74976 -4.00943,69.52995 -21,89 -14.90341,17.99787 -33.70181,25.80219 -60,32 31.23488,18.96343 71.19193,23.94264 107,17 28,-6 54,-22 73,-43 16,-17 28,-37 34,-59 12.37652,-47.92025 3.86911,-88.95851 -22,-125 z"
       sodipodi:nodetypes="ccccccccc" />
    <path
       id="path1031"
       style="font-variation-settings:normal;opacity:1;vector-effect:none;fill:#e498e0;fill-opacity:0.701961;stroke-width:0.246372;stroke-linecap:round;stroke-linejoin:round;stroke-miterlimit:4;stroke-dasharray:none;stroke-dashoffset:0;stroke-opacity:1;paint-order:markers fill stroke;stop-color:#000000;stop-opacity:1"
       d="m 475,193 c -29,5 -57,17 -81,34 -34,24 -58.51664,57.74168 -74,95 -3,8 -6,18 -9,26 19.93525,-0.16734 45.36346,12.41917 58,23 12.11412,12.2715 28.73262,32.99834 29,48 h 12 c 30,-3 58,-18 77,-42 10.48419,-13.7143 19.73897,-30.87954 22,-47 -3,-4 -7,-9 -10,-13 -9,-11 -18,-21 -24,-33 -16.01247,-34.26068 -14.62458,-60.08707 0,-91 z"
       sodipodi:nodetypes="cccccccccccc" />
    <path
       id="path5568"
       style="font-variation-settings:normal;opacity:1;vector-effect:none;fill:#afe498;fill-opacity:0.701961;stroke-width:0.246372;stroke-linecap:round;stroke-linejoin:round;stroke-miterlimit:4;stroke-dasharray:none;stroke-dashoffset:0;stroke-opacity:1;paint-order:markers fill stroke;stop-color:#000000;stop-opacity:1"
       d="m 160,479 c -24.71224,5.80992 -53.46685,5.24498 -76,2 C 59.817141,476.82738 19.032978,463.12078 0,449 v 191 h 185 c -4,-4 -9,-8 -13,-12 -11,-14 -20,-29 -25,-46 -5,-18 -4.90605,-36.80499 -3,-55 1.90605,-18.19501 12.20902,-33.50588 16,-48 z"
       sodipodi:nodetypes="ccccccczc" />
    <path
       id="path924"
       style="font-variation-settings:normal;opacity:1;vector-effect:none;fill:#e498e0;fill-opacity:0.701961;stroke-width:0.246372;stroke-linecap:round;stroke-linejoin:round;stroke-miterlimit:4;stroke-dasharray:none;stroke-dashoffset:0;stroke-opacity:1;paint-order:markers fill stroke;stop-color:#000000;stop-opacity:1"
       d="m 465,540 c 2,3 4,7 5,10 9,20 15,41 24,60 3,8 14,25 20,30 h 42 c 15,-9 29,-23 37,-40 7,-15 10,-32 8,-49 -1,-15 -7,-30 -16,-43 -7,-10 -17,-20 -27,-28 -9,-7 -19,-14 -28,-21 -12.27145,34.85109 -39.61956,67.63534 -65,81 z"
       sodipodi:nodetypes="ccccccccccc" />
    <path
       id="path1045"
       style="font-variation-settings:normal;opacity:1;vector-effect:none;fill:#afe498;fill-opacity:0.701961;stroke-width:0.246372;stroke-linecap:round;stroke-linejoin:round;stroke-miterlimit:4;stroke-dasharray:none;stroke-dashoffset:0;stroke-opacity:1;paint-order:markers fill stroke;stop-color:#000000;stop-opacity:1"
       d="m 280,509 c -15.803,13.63496 -28.04799,41.34414 -31,58 -4,22 -1,45 7,66 2,2 3,5 4,7 h 254 c -26.09687,-25.99122 -30.81811,-73.85228 -49,-100 -5,4 -12,7 -18,9 -16,7 -33,11 -50,11 -32,1 -64,-8 -90,-27 -11.15856,-7.35227 -18.9725,-15.9725 -27,-24 z"
       sodipodi:nodetypes="cccccccccc" />
    <path
       id="path1043"
       style="font-variation-settings:normal;opacity:1;vector-effect:none;fill:#98a7e4;fill-opacity:0.701961;stroke-width:0.246372;stroke-linecap:round;stroke-linejoin:round;stroke-miterlimit:4;stroke-dasharray:none;stroke-dashoffset:0;stroke-opacity:1;paint-order:markers fill stroke;stop-color:#000000;stop-opacity:1"
       d="m 248,437 c -21.22775,18.87189 -57.28385,37.80246 -88,42 -9.52506,25.86187 -16.65599,39.3231 -18,62 -1,24 5,48 17,69 7.7446,12.66197 13.70627,20.76835 26,30 h 75 c -26.27541,-52.29544 -7.81197,-103.12458 20,-131 -17.66741,-20.21349 -29.46888,-53.32809 -32,-72 z"
       sodipodi:nodetypes="cccccccc" />
    <path
       id="path900"
       style="font-variation-settings:normal;opacity:1;vector-effect:none;fill:#afe498;fill-opacity:0.701961;stroke-width:0.246372;stroke-linecap:round;stroke-linejoin:round;stroke-miterlimit:4;stroke-dasharray:none;stroke-dashoffset:0;stroke-opacity:1;paint-order:markers fill stroke;stop-color:#000000;stop-opacity:1"
       d="M 640 395 C 640 360 640 325 640 290 C 627 276 609 266 590 261 C 564 255 536 259 513 273 C 502 280 493 289 485 300 C 488 304 491 308 495 312 C 502 321 510 330 516 341 C 531 365 538 395 536 423 C 536 424 536 425 536 426 C 540 427 544 428 549 428 C 563 430 577 429 591 425 C 608 420 623 411 636 399 C 637 398 639 397 640 395 Z" />
    <path
       id="path1057"
       style="font-variation-settings:normal;opacity:1;vector-effect:none;fill:#ef847b;fill-opacity:0.701961;stroke-width:0.246372;stroke-linecap:round;stroke-linejoin:round;stroke-miterlimit:4;stroke-dasharray:none;stroke-dashoffset:0;stroke-opacity:1;paint-order:markers fill stroke;stop-color:#000000;stop-opacity:1"
       d="m 640,395 c -20.91952,23.10954 -55.13576,35.18868 -80,34 -6,0 -17,-1 -24,-3 -1,12 -3,23 -6,33 22.56421,16.70672 44.56791,32.63948 59,55 10.69266,20.76609 14.38531,37.84859 12,60 -7.12996,30.90917 -20.26874,50.35136 -45,66 28,0 56,0 84,0 0,-81.66667 0,-163.33333 0,-245 z"
       sodipodi:nodetypes="ccccccccc" />
    <path
       id="path898"
       style="font-variation-settings:normal;opacity:1;vector-effect:none;fill:#98a7e4;fill-opacity:0.701961;stroke-width:0.246372;stroke-linecap:round;stroke-linejoin:round;stroke-miterlimit:4;stroke-dasharray:none;stroke-dashoffset:0;stroke-opacity:1;paint-order:markers fill stroke;stop-color:#000000;stop-opacity:1"
       d="m 475,193 c -19.74345,40.41678 -11.69536,77.2524 10,107 10,-14 23,-25 38,-32 24,-11 51,-13 75,-5 17,7 31,16 42,27 v -58 c -7,-6 -15,-11 -22,-15 -27,-15 -56,-25 -86,-27 -19,-2 -40,-1 -57,3 z"
       sodipodi:nodetypes="ccccccccc" />
    <path
       id="path5546"
       style="font-variation-settings:normal;opacity:1;vector-effect:none;fill:#e498e0;fill-opacity:0.701961;stroke-width:0.246372;stroke-linecap:round;stroke-linejoin:round;stroke-miterlimit:4;stroke-dasharray:none;stroke-dashoffset:0;stroke-opacity:1;paint-order:markers fill stroke;stop-color:#000000;stop-opacity:1"
       d="m 110,394 c -2,-1 -4,-2 -7,-3 C 92,385 82,378 73,369 62,357 53,344 45,331 30.375587,306.99973 20.778727,291.26434 0,273 v 176 c 43.800668,28.55218 92.477062,37.15822 133,34 25.81957,-3.04537 48.32531,-6.66923 69,-17 -28.46464,-2.16038 -59.8614,-23.7886 -75,-42 -7,-9 -13,-19 -17,-30 z"
       sodipodi:nodetypes="cccccccccc" />
    <path
       id="path1069"
       style="font-variation-settings:normal;opacity:1;vector-effect:none;fill:#ef847b;fill-opacity:0.701961;stroke-width:0.246372;stroke-linecap:round;stroke-linejoin:round;stroke-miterlimit:4;stroke-dasharray:none;stroke-dashoffset:0;stroke-opacity:1;paint-order:markers fill stroke;stop-color:#000000;stop-opacity:1"
       d="m 0,188 v 85 c 13.616487,11.35346 25.7005,27.61888 34,41 10,15 19,31 30,45 12.111638,16.14991 29.973363,29.35632 46,35 -7.47907,-25.68016 -7.29744,-57.22296 0,-79 11.0568,-26.77575 29.65357,-48.4728 47,-68 C 143,228 125,212 104,201 66.890139,182.85426 35.671513,179.82458 0,188 Z"
       sodipodi:nodetypes="ccccccccc" />
    <path
       id="path954"
       style="font-variation-settings:normal;opacity:1;vector-effect:none;fill:#e498e0;fill-opacity:0.701961;stroke-width:0.246372;stroke-linecap:round;stroke-linejoin:round;stroke-miterlimit:4;stroke-dasharray:none;stroke-dashoffset:0;stroke-opacity:1;paint-order:markers fill stroke;stop-color:#000000;stop-opacity:1"
       d="m 108,76 c -8.990078,15.361757 -15.701967,34.65604 -17,51 -2.884702,36.90397 5.802972,57.2579 23,80 16.42333,10.95927 32.66045,26.24312 43,40 12.94892,-14.30239 26.22081,-30.39541 36,-44 8,-10 14,-22 19,-34 7.6097,-24.52108 7.53672,-42.44023 6,-65 -15,-9 -32,-16 -48,-21 -21.85624,-6.0162 -36.77936,-8.974579 -62,-7 z"
       sodipodi:nodetypes="ccccccccc" />
    <path
       id="path1009"
       style="font-variation-settings:normal;opacity:1;vector-effect:none;fill:#afe498;fill-opacity:0.701961;stroke-width:0.246372;stroke-linecap:round;stroke-linejoin:round;stroke-miterlimit:4;stroke-dasharray:none;stroke-dashoffset:0;stroke-opacity:1;paint-order:markers fill stroke;stop-color:#000000;stop-opacity:1"
       d="M 108,76 C 58.775157,81.770625 24.713619,92.505547 0,115 v 73 c 21.895722,-3.80702 46.580688,-4.72898 66,-1 19.253885,3.85305 32.162924,11.93803 48,20 -12.78568,-19.351 -22.78404,-43.24174 -24,-64 0,-18 3,-35 10,-51 2,-6 5,-11 8,-16 z"
       sodipodi:nodetypes="cccccccc" />
    <path
       id="path891"
       style="font-variation-settings:normal;opacity:1;vector-effect:none;fill:#98a7e4;fill-opacity:0.701961;stroke-width:0.246372;stroke-linecap:round;stroke-linejoin:round;stroke-miterlimit:4;stroke-dasharray:none;stroke-dashoffset:0;stroke-opacity:1;paint-order:markers fill stroke;stop-color:#000000;stop-opacity:1"
       d="m 180,461 c 12.83174,-23.36573 26.70953,-45.06266 36,-69 5,-12 9,-25 11,-38 5,-37 -4,-77 -25,-108 -6,-9 -14,-18 -22,-26 l -12,15 c -13,15 -27,29 -39,46 -9,12 -17.50633,26.04767 -21,41 -5.30947,22.72367 -6,47 1,70 5.33747,12.98079 10.7024,23.84106 18,32 15.82565,17.69357 29.58907,27.70232 53,37 z"
       sodipodi:nodetypes="cccccccacsc" />
    <path
       id="path937"
       style="font-variation-settings:normal;opacity:1;vector-effect:none;fill:#afe498;fill-opacity:0.701961;stroke-width:0.246372;stroke-linecap:round;stroke-linejoin:round;stroke-miterlimit:4;stroke-dasharray:none;stroke-dashoffset:0;stroke-opacity:1;paint-order:markers fill stroke;stop-color:#000000;stop-opacity:1"
       d="m 218,104 c 4,27 -1,55 -13,80 -8,14 -16,25 -25,36 19,18 32,40 40,64 10,29 11,62 2,92 -6,19 -16,38 -26,56 -5,9 -11,20 -16,29 4.84052,2.37392 15.75294,4.66733 22,5 7,-3 13.51153,-6.58888 21,-11 40,-24 72,-63 88,-107 5,-13 8,-26 14,-38 3,-6 6,-12 10,-18 -6,-7 -11,-15 -15,-24 -5,-11 -9,-22 -12,-34 -3,-13 -7,-26 -12,-38 -18,-43 -41,-69 -78,-92 z"
       sodipodi:nodetypes="cccccccccccccccc" />
    <path
       id="path5551"
       style="font-variation-settings:normal;opacity:1;vector-effect:none;fill:#98a7e4;fill-opacity:0.701961;stroke-width:0.246372;stroke-linecap:round;stroke-linejoin:round;stroke-miterlimit:4;stroke-dasharray:none;stroke-dashoffset:0;stroke-opacity:1;paint-order:markers fill stroke;stop-color:#000000;stop-opacity:1"
       d="m 496,100 c -8,-2 -17,-3 -25,-3 -12,0 -24,2 -35,5 -14,3 -28,6 -42,5 C 367,104 344,93 330,70 317.31961,47.333356 314.17828,22.473923 317,0 211.33333,0 105.66667,0 0,0 0,38.333333 0,76.666667 0,115 11,107 23,100 35,94 44,90 53,86 63,84 82.7086,51.114225 111.3506,32.272624 141,26 c 36,-8 76,3 103,29 14,14 24,31 35,47 10,17 21,33 35,47 25,23 62,35 96,29 45.49834,-10.62311 75.84818,-38.7614 86,-78 z"
       sodipodi:nodetypes="cccccccccccccccc" />
    <path
       id="path971"
       style="font-variation-settings:normal;opacity:1;vector-effect:none;fill:#ef847b;fill-opacity:0.701961;stroke-width:0.246372;stroke-linecap:round;stroke-linejoin:round;stroke-miterlimit:4;stroke-dasharray:none;stroke-dashoffset:0;stroke-opacity:1;paint-order:markers fill stroke;stop-color:#000000;stop-opacity:1"
       d="m 496,100 c -2,10 -7,19 -12,28 -14,22 -36,38 -60,46 -19,6 -39,7 -58,2 -22,-5 -42,-16 -57,-32 C 294,128 283,109 272,91 262,75 251,60 236,48 207,25 166,17 130,28 102,37 75.54125,57.692656 64,84 c 33,-9 68,-11 101,-2 33,8 65,26 89,50 23,23 40,52 49,83 5,17 9,35 17,52 4,9 9,17 15,25 24.08948,-41.91095 63.39346,-71.87525 99,-87 42,-17 89,-21 133,-9 8,2 16,5 23,8 -3,-23 -12,-45 -27,-62 -21.22342,-22.65949 -38.16987,-36.15536 -67,-42 z"
       sodipodi:nodetypes="ccccscccccscccccccc" />
    <path
       id="path5549"
       style="font-variation-settings:normal;opacity:1;vector-effect:none;fill:#afe498;fill-opacity:0.701961;stroke-width:0.246372;stroke-linecap:round;stroke-linejoin:round;stroke-miterlimit:4;stroke-dasharray:none;stroke-dashoffset:0;stroke-opacity:1;paint-order:markers fill stroke;stop-color:#000000;stop-opacity:1"
       d="M 518,0 H 317 c -5.53665,23.613944 1.87847,52.389929 13,70 14.77063,24.536719 45,38 74,37 21.34165,-2.00669 41.20059,-7.797267 61,-10 20.53244,-0.476971 50.22564,5.5453 66,17 5,-9 8,-21 9,-32 2.68634,-27.136297 -0.15663,-54.964543 -22,-82 z"
       sodipodi:nodetypes="cccccccc" />
    <path
       id="path994"
       style="font-variation-settings:normal;opacity:1;vector-effect:none;fill:#e498e0;fill-opacity:0.701961;stroke-width:0.246372;stroke-linecap:round;stroke-linejoin:round;stroke-miterlimit:4;stroke-dasharray:none;stroke-dashoffset:0;stroke-opacity:1;paint-order:markers fill stroke;stop-color:#000000;stop-opacity:1"
       d="m 518,0 c 2,3 4,5 6,8 12,19 18,41 17,63 -1,16 -4,30 -10,43 34.3381,23.00238 54.31515,53.73831 59,90 18,8 36,17 49,27 1,1 1,1 1,0 0,-77 0,-154 0,-231 -40.66667,0 -81.33333,0 -122,0 z"
       sodipodi:nodetypes="ccccccccc" />
  </g>
</svg>
